<svg width="54" height="44" viewBox="0 0 54 44" fill="none" xmlns="http://www.w3.org/2000/svg">
<path fill-rule="evenodd" clip-rule="evenodd" d="M26.556 -19.6125C26.2349 -20.2415 25.8168 -20.6519 25.2075 -21C25.1866 -20.9737 25.1653 -20.9477 25.1441 -20.9216C25.1109 -20.881 25.0777 -20.8404 25.0458 -20.7987C23.8076 -19.1896 22.9264 -17.2661 22.0396 -15.3303C21.2731 -13.6573 20.5025 -11.9752 19.4936 -10.4789C14.9576 -3.7521 8.78878 2.54809 1.64221 6.45222C0.546652 7.0508 -0.593535 7.59868 -1.73587 8.1476C-3.54109 9.01505 -5.35167 9.88507 -7 10.9618C-5.83556 11.413 -4.65288 11.8298 -3.46932 12.247C-1.43396 12.9643 0.604038 13.6826 2.55645 14.5783C10.683 18.3076 16.9187 24.7972 20.5522 32.9906C22.0278 36.3179 22.7463 39.718 23.4153 43.274C23.4621 43.3076 23.507 43.3401 23.5504 43.3715C24.0946 43.7655 24.3977 43.9849 25.1479 44C26.0431 43.3357 26.1657 42.5525 26.3274 41.4935C27.6792 32.6419 33.178 23.3626 40.4093 18.0407C42.163 16.7502 44.1035 15.6401 46.1343 14.8575C46.9369 14.5486 47.9127 14.3463 48.9155 14.1383C50.8659 13.7339 52.9187 13.3083 54 12.0354C53.98 11.9331 53.9688 11.8504 53.9594 11.7806C53.9248 11.5254 53.9138 11.4437 53.5819 11.213C52.7772 10.653 51.7834 10.2528 50.7946 9.85453C50.0915 9.57138 49.391 9.28924 48.7627 8.95144C48.0986 8.59601 47.4436 8.22414 46.7977 7.83582C46.1518 7.4475 45.5159 7.04329 44.8901 6.62321C44.2639 6.20349 43.6487 5.76827 43.0444 5.31753C42.4401 4.8668 41.8471 4.4013 41.2655 3.92104C40.6843 3.44078 40.1151 2.94631 39.558 2.43765C39.001 1.92898 38.4567 1.40668 37.9252 0.870728C37.3942 0.33478 36.8765 -0.214061 36.3722 -0.775798C35.8679 -1.33753 35.3779 -1.91142 34.9022 -2.49745C34.1727 -3.4105 33.4829 -4.35271 32.8329 -5.32407C32.1829 -6.2958 31.5749 -7.29333 31.0089 -8.31664C30.4425 -9.33995 29.9202 -10.3855 29.4419 -11.4533C28.964 -12.5211 28.5316 -13.6072 28.1447 -14.7116C27.9304 -15.3155 27.7588 -15.9558 27.5863 -16.5995C27.3068 -17.6422 27.0251 -18.6936 26.556 -19.6125ZM26.9292 -9.91835C26.3744 -11.329 25.7871 -12.8222 24.994 -13.6184C19.1112 -3.88385 10.624 5.36518 0.414173 10.5537C12.2545 15.4305 19.2249 22.182 24.3429 34.0463L24.7153 34.9135L24.9628 34.8115L25.1066 34.3692C27.939 25.775 34.8716 17.4448 42.9591 13.4268C44.1907 12.8151 45.4592 12.2667 46.7221 11.7206C46.8654 11.6587 47.0086 11.5967 47.1517 11.5348C38.6784 6.92426 32.5899 0.810185 27.9078 -7.67697C27.5694 -8.29043 27.2549 -9.09015 26.9292 -9.91835Z" fill="#EA47FF"/>
</svg>
