<svg width="731" height="104" viewBox="0 0 731 104" fill="none" xmlns="http://www.w3.org/2000/svg">
<path fill-rule="evenodd" clip-rule="evenodd" d="M22.901 88.5228C29.9298 92.663 37.9215 94.7331 46.876 94.7331C55.9268 94.7331 64.3036 92.6149 72.0064 88.3783C79.8055 84.1418 86.0159 78.3647 90.6376 71.047C95.2593 63.7293 97.5701 55.6895 97.5701 46.9276C97.5701 39.0322 95.6926 31.5701 91.9374 24.5413C88.2786 17.5125 82.9829 11.8798 76.0504 7.64323C69.1179 3.3104 61.078 1.14398 51.931 1.14398C43.7467 1.14398 35.7069 2.92526 27.8115 6.48781C20.0124 10.0504 13.6095 15.3942 8.60265 22.5193C3.59582 29.5481 1.09241 38.0212 1.09241 47.9386C1.09241 56.4117 2.96997 64.2589 6.72509 71.4803C10.5765 78.6054 15.9685 84.2862 22.901 88.5228ZM66.0849 86.5008C61.8483 89.5819 57.0341 91.1224 51.6421 91.1224C45.3836 91.1224 39.7509 89.0523 34.7441 84.9121C29.8335 80.7718 25.934 75.0428 23.0454 67.7252C20.2531 60.3112 18.857 51.9344 18.857 42.5947C18.857 30.7517 21.216 21.5564 25.934 15.009C30.6519 8.36537 37.3919 5.04353 46.1539 5.04353C52.9901 5.04353 58.9598 7.01738 64.0629 10.9651C69.166 14.9128 73.0656 20.401 75.7615 27.4298C78.4575 34.3624 79.8055 42.2577 79.8055 51.116C79.8055 59.4928 78.6019 66.7142 76.1948 72.7801C73.7877 78.7498 70.4177 83.3233 66.0849 86.5008ZM167.058 81.0125C173.028 89.0042 177.12 93 179.334 93H201.25H205.042C205.104 93 205.156 92.9703 205.198 92.9109C206.406 92.8634 207.738 92.7968 209.194 92.7112C212.852 92.5186 215.982 92.4223 218.581 92.4223C221.277 92.4223 224.455 92.5186 228.114 92.7112C231.387 92.9037 233.891 93 235.624 93C236.105 93 236.346 92.7112 236.346 92.1334C236.346 91.5557 236.105 91.2669 235.624 91.2669C231.484 91.2669 228.162 90.304 225.658 88.3783C223.251 86.4526 222.048 83.7566 222.048 80.2904C222.048 77.8832 222.673 75.2835 223.925 72.4913L229.621 59.9261H265.038L274.908 79.4238C276.834 83.2752 277.797 86.0193 277.797 87.6562C277.797 89.0042 277.219 89.967 276.064 90.5447C275.004 91.0262 273.223 91.2669 270.72 91.2669C270.335 91.2669 270.142 91.5557 270.142 92.1334C270.142 92.7112 270.335 93 270.72 93C272.645 93 275.245 92.9037 278.519 92.7112C281.985 92.5186 284.922 92.4223 287.329 92.4223C289.158 92.4223 292.191 92.5186 296.428 92.7112C300.472 92.9037 303.457 93 305.382 93C305.864 93 306.105 92.7112 306.105 92.1334C306.105 91.5557 305.864 91.2669 305.382 91.2669C302.975 91.2669 300.664 89.967 298.45 87.3673C296.235 84.7676 293.443 80.0497 290.073 73.2134L253.966 2.15498C253.87 1.86612 253.437 1.72169 252.666 1.72169C251.992 1.72169 251.559 1.86612 251.366 2.15498L220.026 71.047C217.522 76.6315 215.356 80.8681 213.526 83.7566C211.697 86.5489 209.868 88.5228 208.038 89.6782C206.68 90.4645 205.083 90.9589 203.247 91.1615C199.871 90.7664 196.425 89.261 192.91 86.6452C188.77 83.5641 184.004 78.6054 178.612 71.7691C173.618 65.322 167.425 56.5199 160.033 45.3629C164.552 42.9108 168.242 39.6291 171.102 35.5178C174.279 31.0887 175.868 26.13 175.868 20.6417C175.868 14.8646 173.461 10.3874 168.647 7.20995C163.832 3.93625 157.044 2.29941 148.282 2.29941C145.971 2.29941 143.853 2.34755 141.927 2.44383C140.098 2.54012 138.557 2.6364 137.306 2.73269C133.743 3.02154 130.325 3.16597 127.051 3.16597C124.452 3.16597 120.937 3.06969 116.508 2.87712L108.854 2.73269C108.661 2.73269 108.565 3.02155 108.565 3.59926C108.565 4.17697 108.661 4.46582 108.854 4.46582C111.838 4.46582 114.053 4.75467 115.497 5.33238C116.941 5.81381 117.904 6.72852 118.386 8.07652C118.867 9.42451 119.108 11.5428 119.108 14.4313V81.3014C119.108 84.1899 118.819 86.3563 118.241 87.8006C117.76 89.1486 116.797 90.0633 115.353 90.5447C114.005 91.0262 111.79 91.2669 108.709 91.2669C108.42 91.2669 108.276 91.5557 108.276 92.1334C108.276 92.7112 108.42 93 108.709 93C111.983 93 114.582 92.9519 116.508 92.8556L127.051 92.7112L138.028 92.8556C139.857 92.9519 142.361 93 145.538 93C145.731 93 145.827 92.7112 145.827 92.1334C145.827 91.5557 145.731 91.2669 145.538 91.2669C142.457 91.2669 140.194 91.0262 138.75 90.5447C137.402 90.0633 136.487 89.1486 136.006 87.8006C135.525 86.4526 135.284 84.2862 135.284 81.3014V49.3828C136.824 49.4791 139.472 49.5273 143.227 49.5273C144.357 49.5273 145.477 49.4762 146.587 49.3742C154.547 62.7607 161.37 73.3068 167.058 81.0125ZM262.991 55.8821L246.353 23.0159L231.454 55.8821H262.991ZM155.937 9.80965C158.248 12.7945 159.403 18.2346 159.403 26.13C159.403 33.0625 158.152 38.1175 155.648 41.2949C153.241 44.376 149.245 45.9166 143.661 45.9166C140.387 45.9166 137.595 45.724 135.284 45.3389V14.7202C135.284 11.3502 136.102 8.94308 137.739 7.49881C139.376 6.05452 142.12 5.33238 145.971 5.33238C150.304 5.33238 153.626 6.8248 155.937 9.80965ZM377.105 2.29941C372.484 1.52912 367.91 1.14398 363.385 1.14398C353.179 1.14398 343.887 3.16597 335.51 7.20995C328.203 10.7784 322.246 15.5839 317.638 21.6265L329.571 29.1935C330.079 27.5852 330.663 26.0344 331.322 24.5413C334.307 17.9939 338.351 12.9871 343.454 9.52079C348.653 5.95824 354.527 4.17697 361.074 4.17697C368.103 4.17697 374.121 6.29524 379.127 10.5318C384.134 14.672 387.986 20.6899 390.682 28.5853C390.874 28.9704 391.211 29.1148 391.693 29.0185C392.174 28.9222 392.415 28.7297 392.415 28.4408L390.537 8.36537C390.441 7.30624 390.248 6.5841 389.959 6.19896C389.767 5.71753 389.237 5.33239 388.371 5.04353C385.579 3.88811 381.823 2.9734 377.105 2.29941ZM327.69 37.4698L313.031 29.0932C310.204 34.9619 308.791 41.4362 308.791 48.5163C308.791 57.4708 311.102 65.4625 315.724 72.4913C320.345 79.5201 326.7 85.0083 334.788 88.956C336.718 89.8643 338.707 90.6656 340.755 91.3597L341.673 84.5677C337.477 81.0824 334.075 76.5274 331.466 70.9026C328.481 64.1626 326.989 56.3635 326.989 47.5053C326.989 43.981 327.223 40.6358 327.69 37.4698ZM349.41 89.215L348.533 93.4255C352.955 94.2973 357.617 94.7331 362.518 94.7331C371.569 94.7331 380.524 93.1444 389.382 89.967C390.248 89.5819 390.778 89.2449 390.97 88.956C391.163 88.5709 391.356 87.8006 391.548 86.6452L393.715 68.7362C393.715 68.4473 393.474 68.2547 392.992 68.1584C392.511 68.0622 392.222 68.1584 392.126 68.4473C388.082 76.7278 383.797 82.6975 379.272 86.3563C374.746 89.9189 369.162 91.7002 362.518 91.7002C357.791 91.7002 353.421 90.8718 349.41 89.215ZM429.556 86.2119C429.171 85.0565 428.979 83.2271 428.979 80.7237V14.5758C428.979 11.6872 429.219 9.56894 429.701 8.22094C430.182 6.77666 431.145 5.81381 432.589 5.33238C434.034 4.75467 436.248 4.46582 439.233 4.46582C439.522 4.46582 439.666 4.17697 439.666 3.59926C439.666 3.02155 439.522 2.73269 439.233 2.73269L431.867 2.87712C427.438 3.06969 423.779 3.16597 420.891 3.16597C418.002 3.16597 414.343 3.06969 409.914 2.87712L402.548 2.73269C402.356 2.73269 402.26 3.02155 402.26 3.59926C402.26 4.17697 402.356 4.46582 402.548 4.46582C405.533 4.46582 407.748 4.75467 409.192 5.33238C410.636 5.81381 411.599 6.72852 412.081 8.07652C412.658 9.42451 412.947 11.5428 412.947 14.4313V81.3014C412.947 84.1899 412.658 86.3563 412.081 87.8006C411.599 89.1486 410.636 90.0633 409.192 90.5447C407.844 91.0262 405.63 91.2669 402.548 91.2669C402.356 91.2669 402.26 91.5557 402.26 92.1334C402.26 92.7112 402.356 93 402.548 93H470.718C471.489 93 472.018 92.8556 472.307 92.5667C472.692 92.1816 472.885 91.6039 472.885 90.8336C472.885 84.4788 473.318 76.5352 474.185 67.003C474.185 66.9067 474.04 66.8104 473.751 66.7142C473.559 66.5216 473.366 66.4253 473.174 66.4253C472.788 66.4253 472.596 66.5216 472.596 66.7142C470.766 73.5504 467.108 78.9905 461.619 83.0345C456.131 86.9822 449.632 88.956 442.122 88.956H437.211C434.708 88.956 432.878 88.7635 431.723 88.3783C430.664 87.9932 429.941 87.271 429.556 86.2119ZM480.6 92.1334C480.6 92.7112 480.745 93 481.034 93H544.871C545.737 93 546.315 92.8556 546.604 92.5667C546.893 92.1816 547.037 91.6039 547.037 90.8336C547.037 84.6713 547.518 77.8351 548.481 70.3249C548.481 70.2286 548.337 70.1323 548.048 70.036C547.855 69.8434 547.615 69.7471 547.326 69.7471C546.941 69.7471 546.748 69.8434 546.748 70.036C544.63 76.4871 541.308 81.2532 536.783 84.3343C532.257 87.4155 526.239 88.956 518.729 88.956H513.963C511.652 88.956 509.967 88.282 508.908 86.934C507.849 85.5861 507.319 83.5159 507.319 80.7237V48.083H519.162C524.843 48.083 529.176 49.2384 532.161 51.5493C535.242 53.7638 536.783 56.8449 536.783 60.7926C536.783 60.9852 537.072 61.0815 537.649 61.0815C538.227 61.0815 538.516 60.9852 538.516 60.7926C538.516 58.8669 538.419 56.2672 538.227 52.9935L538.083 46.061L538.227 33.0625C538.227 32.7737 537.938 32.6292 537.36 32.6292C536.879 32.6292 536.638 32.7737 536.638 33.0625C536.638 36.5288 535.146 39.2248 532.161 41.1505C529.176 43.0762 524.891 44.039 519.307 44.039H507.319V14.5758C507.319 11.9761 507.993 10.0504 509.341 8.79866C510.689 7.54695 512.808 6.92109 515.696 6.92109H520.029C525.999 6.92109 530.813 8.26909 534.472 10.9651C538.131 13.6611 540.73 17.8013 542.271 23.3859C542.367 23.6747 542.656 23.771 543.138 23.6747C543.715 23.5784 544.004 23.434 544.004 23.2414L543.715 4.03253C543.715 3.16597 543.234 2.73269 542.271 2.73269H481.034C480.745 2.73269 480.6 3.02155 480.6 3.59926C480.6 4.17697 480.745 4.46582 481.034 4.46582C484.018 4.46582 486.233 4.75467 487.677 5.33238C489.122 5.81381 490.084 6.72852 490.566 8.07652C491.047 9.42451 491.288 11.5428 491.288 14.4313V81.3014C491.288 84.1899 491.047 86.3563 490.566 87.8006C490.084 89.1486 489.122 90.0633 487.677 90.5447C486.329 91.0262 484.115 91.2669 481.034 91.2669C480.745 91.2669 480.6 91.5557 480.6 92.1334ZM612.834 59.9261L607.138 72.4913C605.886 75.2835 605.261 77.8832 605.261 80.2904C605.261 83.7566 606.464 86.4526 608.871 88.3783C611.375 90.304 614.697 91.2669 618.837 91.2669C619.318 91.2669 619.559 91.5557 619.559 92.1334C619.559 92.7112 619.318 93 618.837 93C617.104 93 614.6 92.9037 611.327 92.7112C607.668 92.5186 604.49 92.4223 601.794 92.4223C599.195 92.4223 596.065 92.5186 592.407 92.7112C589.133 92.9037 586.485 93 584.463 93C584.078 93 583.885 92.7112 583.885 92.1334C583.885 91.5557 584.078 91.2669 584.463 91.2669C587.159 91.2669 589.422 90.7373 591.251 89.6782C593.081 88.5228 594.91 86.5489 596.739 83.7566C598.569 80.8681 600.735 76.6315 603.239 71.047L634.579 2.15498C634.772 1.86612 635.205 1.72169 635.879 1.72169C636.65 1.72169 637.083 1.86612 637.179 2.15498L673.286 73.2134C676.656 80.0497 679.448 84.7676 681.663 87.3673C683.877 89.967 686.188 91.2669 688.595 91.2669C689.077 91.2669 689.318 91.5557 689.318 92.1334C689.318 92.7112 689.077 93 688.595 93C686.67 93 683.685 92.9037 679.641 92.7112C675.404 92.5186 672.371 92.4223 670.542 92.4223C668.135 92.4223 665.198 92.5186 661.732 92.7112C658.458 92.9037 655.858 93 653.933 93C653.548 93 653.355 92.7112 653.355 92.1334C653.355 91.5557 653.548 91.2669 653.933 91.2669C656.436 91.2669 658.217 91.0262 659.277 90.5447C660.432 89.967 661.01 89.0042 661.01 87.6562C661.01 86.0193 660.047 83.2752 658.121 79.4238L648.251 59.9261H612.834ZM614.667 55.8821H646.203L629.565 23.0159L614.667 55.8821ZM720.127 87.8006C719.645 86.4526 719.405 84.2862 719.405 81.3014V14.7202C719.405 11.8316 719.645 9.71336 720.127 8.36537C720.608 6.92109 721.571 5.9101 723.015 5.33238C724.46 4.75467 726.674 4.46582 729.659 4.46582C729.948 4.46582 730.092 4.17697 730.092 3.59926C730.092 3.02155 729.948 2.73269 729.659 2.73269L722.293 2.87712C717.864 3.06969 714.157 3.16597 711.172 3.16597C708.476 3.16597 704.914 3.06969 700.485 2.87712L692.686 2.73269C692.493 2.73269 692.397 3.02155 692.397 3.59926C692.397 4.17697 692.493 4.46582 692.686 4.46582C695.767 4.46582 698.029 4.75467 699.474 5.33238C700.918 5.81381 701.881 6.72852 702.362 8.07652C702.94 9.42451 703.229 11.5428 703.229 14.4313V81.3014C703.229 84.1899 702.94 86.3563 702.362 87.8006C701.881 89.1486 700.918 90.0633 699.474 90.5447C698.029 91.0262 695.767 91.2669 692.686 91.2669C692.493 91.2669 692.397 91.5557 692.397 92.1334C692.397 92.7112 692.493 93 692.686 93C695.959 93 698.559 92.9519 700.485 92.8556L711.172 92.7112L722.149 92.8556C723.978 92.9519 726.482 93 729.659 93C729.948 93 730.092 92.7112 730.092 92.1334C730.092 91.5557 729.948 91.2669 729.659 91.2669C726.578 91.2669 724.315 91.0262 722.871 90.5447C721.523 90.0633 720.608 89.1486 720.127 87.8006Z" fill="white"/>
<path d="M329.058 35.3773C331.85 36.949 333.977 38.147 334.904 38.6854C335.874 40.599 339.521 42.3905 342.075 43.6453C342.571 43.8889 343.026 44.1124 343.412 44.3125L343.307 44.6226C342.689 44.5118 341.943 44.355 341.117 44.1813C337.112 43.3391 331.216 42.0994 328.759 43.7765L328.748 44.4825C333.045 46.4485 343.576 48.6266 348.498 49.3324C348.063 49.5342 347.626 49.7359 347.188 49.9383C342.818 51.955 338.307 54.0371 334.544 57.0344L334.69 57.5283C336.713 57.2831 340.481 55.8502 344.053 54.4915C347.778 53.0748 351.291 51.7388 352.392 51.9144C352.621 53.2533 350.612 60.6335 348.356 68.9215C345.663 78.8138 342.618 89.9993 342.607 93.7484C342.604 94.7714 342.564 95.5474 342.215 96.5224C341.581 98.2924 341.017 99.8724 341.754 101.695L342.454 100.159L342.785 100.81C342.56 101.739 342.439 102.508 342.452 103.465L343.202 103.356C343.747 102.667 343.979 102.22 344.092 101.341C344.378 99.1225 345.029 97.4508 345.739 95.6275C346.027 94.8871 346.326 94.1216 346.613 93.2844C346.935 92.3449 347.097 91.3059 347.257 90.2755C347.358 89.6278 347.459 88.9835 347.598 88.3694C348.885 82.6946 350.714 77.1008 352.536 71.5322C353.276 69.271 354.014 67.014 354.714 64.7574C355.04 63.7061 355.292 62.5923 355.545 61.4734C355.937 59.7397 356.332 57.9937 357.011 56.4494C357.468 55.4084 357.782 55.1824 358.7 54.6034C361.061 55.021 364.025 59.1021 366.694 62.7774C368.224 64.8835 369.657 66.8564 370.824 67.9304C370.993 68.0864 371.166 68.2384 371.337 68.3924C369.864 64.5703 367.593 60.8842 365.351 57.2453C364.148 55.2926 362.953 53.3535 361.895 51.4144C366.688 52.7637 372.241 54.9443 377.847 57.1454C385.647 60.2085 393.549 63.3112 399.642 64.2684C397.896 63.3219 396.159 62.3578 394.423 61.3938C388.917 58.3375 383.411 55.2814 377.622 52.7864C376.777 52.4222 375.142 51.8759 373.248 51.2433C369.047 49.84 363.574 48.0117 362.638 46.8034C363.235 44.2872 367.099 40.6395 370.624 37.3127C372.723 35.3311 374.702 33.4633 375.798 32.0164C375.889 31.8976 375.976 31.7766 376.064 31.6555C376.095 31.6134 376.125 31.5713 376.156 31.5294C371.532 33.9338 367.433 37.3732 363.419 40.7412C362.67 41.3695 361.925 41.9952 361.179 42.6114L360.855 42.0583L360.712 42.6064C360.848 41.52 360.985 40.4347 361.122 39.3499C362.032 32.147 362.938 24.9722 363.572 17.7263C359.022 26.0514 356.795 34.0594 355.036 43.2393C354.938 43.3566 354.855 43.4987 354.773 43.6409C354.609 43.9246 354.446 44.2081 354.152 44.2934C351.489 45.0635 338.641 37.8178 325.843 30.5999C313.315 23.5349 300.835 16.4966 298 17.0283C298.954 18.4261 318.634 29.5077 329.058 35.3773Z" fill="#B83BC8"/>
<path d="M329.058 35.3773C331.85 36.949 333.977 38.147 334.904 38.6854C335.874 40.599 339.521 42.3905 342.075 43.6453C342.571 43.8889 343.026 44.1124 343.412 44.3125L343.307 44.6226C342.689 44.5118 341.943 44.355 341.117 44.1813C337.112 43.3391 331.216 42.0994 328.759 43.7765L328.748 44.4825C333.045 46.4485 343.576 48.6266 348.498 49.3324C348.063 49.5342 347.626 49.7359 347.188 49.9383C342.818 51.955 338.307 54.0371 334.544 57.0344L334.69 57.5283C336.713 57.2831 340.481 55.8502 344.053 54.4915C347.778 53.0748 351.291 51.7388 352.392 51.9144C352.621 53.2533 350.612 60.6335 348.356 68.9215C345.663 78.8138 342.618 89.9993 342.607 93.7484C342.604 94.7714 342.564 95.5474 342.215 96.5224C341.581 98.2924 341.017 99.8724 341.754 101.695L342.454 100.159L342.785 100.81C342.56 101.739 342.439 102.508 342.452 103.465L343.202 103.356C343.747 102.667 343.979 102.22 344.092 101.341C344.378 99.1225 345.029 97.4508 345.739 95.6275C346.027 94.8871 346.326 94.1216 346.613 93.2844C346.935 92.3449 347.097 91.3059 347.257 90.2755C347.358 89.6278 347.459 88.9835 347.598 88.3694C348.885 82.6946 350.714 77.1008 352.536 71.5322C353.276 69.271 354.014 67.014 354.714 64.7574C355.04 63.7061 355.292 62.5923 355.545 61.4734C355.937 59.7397 356.332 57.9937 357.011 56.4494C357.468 55.4084 357.782 55.1824 358.7 54.6034C361.061 55.021 364.025 59.1021 366.694 62.7774C368.224 64.8835 369.657 66.8564 370.824 67.9304C370.993 68.0864 371.166 68.2384 371.337 68.3924C369.864 64.5703 367.593 60.8842 365.351 57.2453C364.148 55.2926 362.953 53.3535 361.895 51.4144C366.688 52.7637 372.241 54.9443 377.847 57.1454C385.647 60.2085 393.549 63.3112 399.642 64.2684C397.896 63.3219 396.159 62.3578 394.423 61.3938C388.917 58.3375 383.411 55.2814 377.622 52.7864C376.777 52.4222 375.142 51.8759 373.248 51.2433C369.047 49.84 363.574 48.0117 362.638 46.8034C363.235 44.2872 367.099 40.6395 370.624 37.3127C372.723 35.3311 374.702 33.4633 375.798 32.0164C375.889 31.8976 375.976 31.7766 376.064 31.6555C376.095 31.6134 376.125 31.5713 376.156 31.5294C371.532 33.9338 367.433 37.3732 363.419 40.7412C362.67 41.3695 361.925 41.9952 361.179 42.6114L360.855 42.0583L360.712 42.6064C360.848 41.52 360.985 40.4347 361.122 39.3499C362.032 32.147 362.938 24.9722 363.572 17.7263C359.022 26.0514 356.795 34.0594 355.036 43.2393C354.938 43.3566 354.855 43.4987 354.773 43.6409C354.609 43.9246 354.446 44.2081 354.152 44.2934C351.489 45.0635 338.641 37.8178 325.843 30.5999C313.315 23.5349 300.835 16.4966 298 17.0283C298.954 18.4261 318.634 29.5077 329.058 35.3773Z" fill="#EA47FF"/>
</svg>
