<svg width="356" height="96" viewBox="0 0 356 96" fill="none" xmlns="http://www.w3.org/2000/svg">
<g filter="url(#filter0_d_223_968)">
<path fill-rule="evenodd" clip-rule="evenodd" d="M37.2815 64.5191C40.1644 66.2173 43.4422 67.0663 47.1149 67.0663C50.8271 67.0663 54.2629 66.1975 57.4222 64.4599C60.621 62.7223 63.1682 60.3528 65.0638 57.3514C66.9594 54.3501 67.9071 51.0526 67.9071 47.4588C67.9071 44.2205 67.1371 41.16 65.5969 38.2771C64.0962 35.3942 61.9242 33.084 59.0808 31.3463C56.2374 29.5692 52.9399 28.6807 49.1882 28.6807C45.8314 28.6807 42.5339 29.4113 39.2956 30.8724C36.0968 32.3336 33.4706 34.5254 31.4171 37.4478C29.3635 40.3306 28.3367 43.8059 28.3367 47.8735C28.3367 51.3487 29.1068 54.5673 30.647 57.5292C32.2266 60.4515 34.4382 62.7815 37.2815 64.5191ZM54.9934 63.6898C53.2558 64.9535 51.2813 65.5854 49.0697 65.5854C46.5028 65.5854 44.1925 64.7363 42.139 63.0382C40.1249 61.3401 38.5255 58.9903 37.3408 55.989C36.1955 52.9482 35.6229 49.5124 35.6229 45.6817C35.6229 40.8243 36.5904 37.0528 38.5255 34.3674C40.4606 31.6425 43.225 30.2801 46.8187 30.2801C49.6226 30.2801 52.0711 31.0896 54.1641 32.7088C56.2572 34.3279 57.8566 36.579 58.9623 39.4618C60.0681 42.3052 60.621 45.5435 60.621 49.1767C60.621 52.6125 60.1273 55.5743 59.14 58.0623C58.1528 60.5108 56.7706 62.3866 54.9934 63.6898ZM96.4076 61.4388C98.8561 64.7166 100.534 66.3555 101.443 66.3555H110.432H111.987C112.012 66.3555 112.034 66.3433 112.051 66.319C112.546 66.2994 113.093 66.2721 113.69 66.237C115.19 66.158 116.474 66.1185 117.54 66.1185C118.646 66.1185 119.949 66.158 121.45 66.237C122.792 66.316 123.819 66.3555 124.53 66.3555C124.727 66.3555 124.826 66.237 124.826 66.0001C124.826 65.7631 124.727 65.6446 124.53 65.6446C122.832 65.6446 121.469 65.2497 120.443 64.4599C119.455 63.6701 118.962 62.5643 118.962 61.1426C118.962 60.1553 119.218 59.0891 119.732 57.9438L122.068 52.7902H136.594L140.643 60.7872C141.432 62.3669 141.827 63.4924 141.827 64.1637C141.827 64.7166 141.59 65.1115 141.116 65.3485C140.682 65.5459 139.951 65.6446 138.925 65.6446C138.767 65.6446 138.688 65.7631 138.688 66.0001C138.688 66.237 138.767 66.3555 138.925 66.3555C139.714 66.3555 140.781 66.316 142.123 66.237C143.545 66.158 144.75 66.1185 145.737 66.1185C146.487 66.1185 147.731 66.158 149.469 66.237C151.127 66.316 152.352 66.3555 153.142 66.3555C153.339 66.3555 153.438 66.237 153.438 66.0001C153.438 65.7631 153.339 65.6446 153.142 65.6446C152.154 65.6446 151.206 65.1115 150.298 64.0452C149.39 62.979 148.245 61.0439 146.862 58.24L132.053 29.0953C132.014 28.9769 131.836 28.9176 131.52 28.9176C131.244 28.9176 131.066 28.9769 130.987 29.0953L118.132 57.3514C117.106 59.6419 116.217 61.3796 115.467 62.5643C114.716 63.7096 113.966 64.5191 113.216 64.993C112.659 65.3155 112.004 65.5183 111.251 65.6014C109.866 65.4394 108.453 64.8219 107.011 63.7491C105.313 62.4853 103.358 60.4515 101.147 57.6476C99.0982 55.0033 96.5581 51.3932 93.5262 46.8171C95.3799 45.8114 96.8932 44.4654 98.0663 42.7791C99.3695 40.9625 100.021 38.9287 100.021 36.6777C100.021 34.3082 99.0338 32.4718 97.0592 31.1686C95.0847 29.8259 92.3005 29.1546 88.7068 29.1546C87.759 29.1546 86.8902 29.1743 86.1004 29.2138C85.35 29.2533 84.7182 29.2928 84.2048 29.3323C82.7436 29.4507 81.3416 29.51 79.9989 29.51C78.9327 29.51 77.4912 29.4705 75.6746 29.3915L72.535 29.3323C72.4561 29.3323 72.4166 29.4507 72.4166 29.6877C72.4166 29.9246 72.4561 30.0431 72.535 30.0431C73.7593 30.0431 74.6676 30.1616 75.26 30.3985C75.8523 30.596 76.2472 30.9712 76.4447 31.524C76.6422 32.0769 76.7409 32.9457 76.7409 34.1305V61.5573C76.7409 62.742 76.6224 63.6306 76.3855 64.223C76.188 64.7758 75.7931 65.151 75.2007 65.3485C74.6478 65.5459 73.7395 65.6446 72.4758 65.6446C72.3573 65.6446 72.2981 65.7631 72.2981 66.0001C72.2981 66.237 72.3573 66.3555 72.4758 66.3555C73.8185 66.3555 74.8848 66.3357 75.6746 66.2963L79.9989 66.237L84.501 66.2963C85.2513 66.3357 86.2781 66.3555 87.5813 66.3555C87.6603 66.3555 87.6998 66.237 87.6998 66.0001C87.6998 65.7631 87.6603 65.6446 87.5813 65.6446C86.3176 65.6446 85.3895 65.5459 84.7971 65.3485C84.2443 65.151 83.8691 64.7758 83.6716 64.223C83.4742 63.6701 83.3755 62.7815 83.3755 61.5573V48.4659C84.0073 48.5054 85.0933 48.5251 86.6335 48.5251C87.097 48.5251 87.5563 48.5042 88.0114 48.4623C91.2761 53.9528 94.0749 58.2783 96.4076 61.4388ZM135.754 51.1315L128.93 37.6514L122.82 51.1315H135.754ZM91.8464 32.2349C92.7942 33.4591 93.2681 35.6904 93.2681 38.9287C93.2681 41.7721 92.7547 43.8454 91.7279 45.1486C90.7406 46.4123 89.1017 47.0442 86.8112 47.0442C85.4685 47.0442 84.3232 46.9652 83.3755 46.8072V34.249C83.3755 32.8668 83.7111 31.8795 84.3825 31.2871C85.0538 30.6947 86.1793 30.3985 87.759 30.3985C89.5361 30.3985 90.8986 31.0107 91.8464 32.2349ZM182.559 29.1546C180.663 28.8386 178.787 28.6807 176.931 28.6807C172.745 28.6807 168.934 29.51 165.499 31.1686C162.337 32.7127 159.791 34.8215 157.862 37.495L162.909 40.6956C163.151 39.8522 163.441 39.046 163.781 38.2771C165.005 35.5917 166.663 33.5381 168.757 32.1164C170.889 30.6552 173.298 29.9246 175.983 29.9246C178.866 29.9246 181.335 30.7935 183.388 32.5311C185.442 34.2292 187.021 36.6974 188.127 39.9357C188.206 40.0937 188.344 40.1529 188.542 40.1134C188.739 40.0739 188.838 39.995 188.838 39.8765L188.068 31.6425C188.028 31.2081 187.949 30.9119 187.831 30.754C187.752 30.5565 187.535 30.3985 187.179 30.2801C186.034 29.8062 184.494 29.431 182.559 29.1546ZM162.216 44.1268L156.063 40.6103C155.047 42.8928 154.54 45.3928 154.54 48.1104C154.54 51.7832 155.487 55.0609 157.383 57.9438C159.279 60.8267 161.885 63.0777 165.202 64.6969C165.923 65.0361 166.664 65.339 167.425 65.6054L167.816 62.7184C166.191 61.3131 164.866 59.5044 163.84 57.2922C162.616 54.5278 162.004 51.329 162.004 47.6958C162.004 46.4517 162.075 45.262 162.216 44.1268ZM171.012 64.7239L170.644 66.4907C172.516 66.8744 174.493 67.0663 176.576 67.0663C180.288 67.0663 183.961 66.4147 187.594 65.1115C187.949 64.9535 188.167 64.8153 188.246 64.6969C188.325 64.5389 188.404 64.223 188.483 63.7491L189.371 56.4037C189.371 56.2852 189.272 56.2062 189.075 56.1667C188.877 56.1272 188.759 56.1667 188.719 56.2852C187.061 59.6814 185.303 62.1299 183.447 63.6306C181.591 65.0918 179.301 65.8224 176.576 65.8224C174.563 65.8224 172.708 65.4562 171.012 64.7239ZM204.072 63.5713C203.914 63.0975 203.835 62.3471 203.835 61.3203V34.1897C203.835 33.005 203.933 32.1362 204.131 31.5833C204.328 30.9909 204.723 30.596 205.316 30.3985C205.908 30.1616 206.816 30.0431 208.04 30.0431C208.159 30.0431 208.218 29.9246 208.218 29.6877C208.218 29.4507 208.159 29.3323 208.04 29.3323L205.019 29.3915C203.203 29.4705 201.702 29.51 200.517 29.51C199.333 29.51 197.832 29.4705 196.015 29.3915L192.994 29.3323C192.915 29.3323 192.876 29.4507 192.876 29.6877C192.876 29.9246 192.915 30.0431 192.994 30.0431C194.218 30.0431 195.127 30.1616 195.719 30.3985C196.312 30.596 196.706 30.9712 196.904 31.524C197.141 32.0769 197.259 32.9457 197.259 34.1305V61.5573C197.259 62.742 197.141 63.6306 196.904 64.223C196.706 64.7758 196.312 65.151 195.719 65.3485C195.166 65.5459 194.258 65.6446 192.994 65.6446C192.915 65.6446 192.876 65.7631 192.876 66.0001C192.876 66.237 192.915 66.3555 192.994 66.3555H220.954C221.27 66.3555 221.487 66.2963 221.606 66.1778C221.764 66.0198 221.843 65.7829 221.843 65.4669C221.843 62.8605 222.02 59.6025 222.376 55.6928C222.376 55.6533 222.317 55.6138 222.198 55.5743C222.119 55.4953 222.04 55.4559 221.961 55.4559C221.803 55.4559 221.724 55.4953 221.724 55.5743C220.974 58.3782 219.473 60.6095 217.222 62.2681C214.971 63.8873 212.306 64.6969 209.225 64.6969H207.211C206.184 64.6969 205.434 64.6179 204.96 64.4599C204.526 64.3019 204.23 64.0058 204.072 63.5713ZM225.007 66.0001C225.007 66.237 225.067 66.3555 225.185 66.3555H251.368C251.723 66.3555 251.96 66.2963 252.079 66.1778C252.197 66.0198 252.256 65.7829 252.256 65.4669C252.256 62.9395 252.454 60.1356 252.849 57.0553C252.849 57.0158 252.79 56.9763 252.671 56.9368C252.592 56.8578 252.493 56.8183 252.375 56.8183C252.217 56.8183 252.138 56.8578 252.138 56.9368C251.269 59.5827 249.907 61.5375 248.051 62.8013C246.194 64.065 243.726 64.6969 240.646 64.6969H238.691C237.743 64.6969 237.052 64.4204 236.618 63.8675C236.183 63.3147 235.966 62.4656 235.966 61.3203V47.9327H240.824C243.154 47.9327 244.931 48.4066 246.155 49.3544C247.419 50.2627 248.051 51.5265 248.051 53.1456C248.051 53.2246 248.169 53.2641 248.406 53.2641C248.643 53.2641 248.761 53.2246 248.761 53.1456C248.761 52.3558 248.722 51.2895 248.643 49.9468L248.584 47.1034L248.643 41.7721C248.643 41.6536 248.524 41.5944 248.288 41.5944C248.09 41.5944 247.991 41.6536 247.991 41.7721C247.991 43.1938 247.379 44.2995 246.155 45.0894C244.931 45.8792 243.173 46.2741 240.883 46.2741H235.966V34.1897C235.966 33.1234 236.243 32.3336 236.796 31.8202C237.348 31.3068 238.217 31.0502 239.402 31.0502H241.179C243.628 31.0502 245.602 31.603 247.103 32.7088C248.603 33.8146 249.67 35.5127 250.302 37.8032C250.341 37.9217 250.46 37.9612 250.657 37.9217C250.894 37.8822 251.012 37.8229 251.012 37.7439L250.894 29.8654C250.894 29.51 250.696 29.3323 250.302 29.3323H225.185C225.067 29.3323 225.007 29.4507 225.007 29.6877C225.007 29.9246 225.067 30.0431 225.185 30.0431C226.409 30.0431 227.318 30.1616 227.91 30.3985C228.502 30.596 228.897 30.9712 229.095 31.524C229.292 32.0769 229.391 32.9457 229.391 34.1305V61.5573C229.391 62.742 229.292 63.6306 229.095 64.223C228.897 64.7758 228.502 65.151 227.91 65.3485C227.357 65.5459 226.449 65.6446 225.185 65.6446C225.067 65.6446 225.007 65.7631 225.007 66.0001ZM279.243 52.7902L276.907 57.9438C276.394 59.0891 276.137 60.1553 276.137 61.1426C276.137 62.5643 276.63 63.6701 277.618 64.4599C278.645 65.2497 280.007 65.6446 281.705 65.6446C281.903 65.6446 282.001 65.7631 282.001 66.0001C282.001 66.237 281.903 66.3555 281.705 66.3555C280.994 66.3555 279.967 66.316 278.625 66.237C277.124 66.158 275.821 66.1185 274.715 66.1185C273.649 66.1185 272.365 66.158 270.865 66.237C269.522 66.316 268.436 66.3555 267.607 66.3555C267.449 66.3555 267.37 66.237 267.37 66.0001C267.37 65.7631 267.449 65.6446 267.607 65.6446C268.712 65.6446 269.64 65.4274 270.391 64.993C271.141 64.5191 271.891 63.7096 272.642 62.5643C273.392 61.3796 274.281 59.6419 275.308 57.3514L288.162 29.0953C288.241 28.9769 288.419 28.9176 288.695 28.9176C289.011 28.9176 289.189 28.9769 289.228 29.0953L304.038 58.24C305.42 61.0439 306.565 62.979 307.473 64.0452C308.382 65.1115 309.329 65.6446 310.317 65.6446C310.514 65.6446 310.613 65.7631 310.613 66.0001C310.613 66.237 310.514 66.3555 310.317 66.3555C309.527 66.3555 308.303 66.316 306.644 66.237C304.906 66.158 303.662 66.1185 302.912 66.1185C301.925 66.1185 300.72 66.158 299.299 66.237C297.956 66.316 296.89 66.3555 296.1 66.3555C295.942 66.3555 295.863 66.237 295.863 66.0001C295.863 65.7631 295.942 65.6446 296.1 65.6446C297.127 65.6446 297.857 65.5459 298.292 65.3485C298.765 65.1115 299.002 64.7166 299.002 64.1637C299.002 63.4924 298.607 62.3669 297.818 60.7872L293.769 52.7902H279.243ZM279.995 51.1315H292.93L286.105 37.6514L279.995 51.1315ZM323.249 64.223C323.052 63.6701 322.953 62.7815 322.953 61.5573V34.249C322.953 33.0642 323.052 32.1954 323.249 31.6425C323.447 31.0502 323.842 30.6355 324.434 30.3985C325.026 30.1616 325.935 30.0431 327.159 30.0431C327.277 30.0431 327.337 29.9246 327.337 29.6877C327.337 29.4507 327.277 29.3323 327.159 29.3323L324.138 29.3915C322.321 29.4705 320.801 29.51 319.577 29.51C318.471 29.51 317.01 29.4705 315.193 29.3915L311.994 29.3323C311.915 29.3323 311.876 29.4507 311.876 29.6877C311.876 29.9246 311.915 30.0431 311.994 30.0431C313.258 30.0431 314.186 30.1616 314.778 30.3985C315.371 30.596 315.766 30.9712 315.963 31.524C316.2 32.0769 316.319 32.9457 316.319 34.1305V61.5573C316.319 62.742 316.2 63.6306 315.963 64.223C315.766 64.7758 315.371 65.151 314.778 65.3485C314.186 65.5459 313.258 65.6446 311.994 65.6446C311.915 65.6446 311.876 65.7631 311.876 66.0001C311.876 66.237 311.915 66.3555 311.994 66.3555C313.337 66.3555 314.403 66.3357 315.193 66.2963L319.577 66.237L324.079 66.2963C324.829 66.3357 325.856 66.3555 327.159 66.3555C327.277 66.3555 327.337 66.237 327.337 66.0001C327.337 65.7631 327.277 65.6446 327.159 65.6446C325.895 65.6446 324.967 65.5459 324.375 65.3485C323.822 65.151 323.447 64.7758 323.249 64.223Z" fill="white"/>
</g>
<path d="M162.557 43.1439C163.702 43.7885 164.574 44.2799 164.955 44.5007C165.353 45.2856 166.848 46.0204 167.896 46.535C168.099 46.635 168.286 46.7266 168.444 46.8087L168.401 46.9359C168.147 46.8904 167.842 46.8261 167.503 46.7549C165.86 46.4095 163.442 45.901 162.434 46.5889L162.43 46.8784C164.192 47.6848 168.511 48.5781 170.53 48.8676C170.352 48.9504 170.173 49.0331 169.993 49.1161C168.201 49.9433 166.35 50.7972 164.807 52.0266L164.867 52.2292C165.696 52.1286 167.242 51.5409 168.707 50.9836C170.235 50.4025 171.676 49.8546 172.127 49.9266C172.221 50.4758 171.397 53.5028 170.472 56.9021C169.367 60.9594 168.118 65.5472 168.114 67.0849C168.113 67.5044 168.096 67.8227 167.953 68.2226C167.693 68.9486 167.462 69.5966 167.764 70.3443L168.051 69.7143L168.187 69.9813C168.095 70.3624 168.045 70.6778 168.05 71.0703L168.358 71.0256C168.582 70.743 168.677 70.5597 168.723 70.1991C168.84 69.2891 169.107 68.6034 169.399 67.8556C169.517 67.5519 169.639 67.238 169.757 66.8945C169.889 66.5092 169.956 66.0831 170.021 65.6605C170.063 65.3948 170.104 65.1305 170.161 64.8787C170.689 62.5511 171.439 60.2568 172.186 57.9729C172.49 57.0454 172.793 56.1197 173.08 55.1942C173.214 54.763 173.317 54.3062 173.421 53.8472C173.581 53.1362 173.743 52.42 174.022 51.7866C174.209 51.3597 174.338 51.267 174.715 51.0295C175.683 51.2008 176.899 52.8747 177.993 54.3821C178.621 55.2459 179.208 56.0551 179.687 56.4956C179.756 56.5596 179.827 56.6219 179.898 56.6851C179.294 55.1175 178.362 53.6056 177.443 52.1131C176.949 51.3122 176.459 50.5169 176.025 49.7215C177.991 50.2749 180.268 51.1693 182.568 52.0721C185.767 53.3284 189.008 54.601 191.507 54.9936C190.791 54.6054 190.079 54.21 189.366 53.8146C187.108 52.5611 184.85 51.3076 182.475 50.2843C182.129 50.1349 181.458 49.9108 180.682 49.6514C178.958 49.0758 176.714 48.3259 176.33 47.8303C176.574 46.7983 178.16 45.3022 179.605 43.9377C180.466 43.125 181.278 42.3589 181.727 41.7654C181.764 41.7167 181.8 41.6671 181.836 41.6174C181.849 41.6002 181.862 41.5829 181.874 41.5657C179.977 42.5519 178.296 43.9625 176.65 45.3439C176.343 45.6016 176.037 45.8583 175.731 46.111L175.598 45.8841L175.54 46.1089C175.596 45.6634 175.652 45.2182 175.708 44.7733C176.081 41.819 176.453 38.8762 176.713 35.9044C174.847 39.3189 173.933 42.6034 173.212 46.3685C173.171 46.4166 173.138 46.4749 173.104 46.5332C173.037 46.6496 172.97 46.7659 172.849 46.8008C171.757 47.1167 166.487 44.1449 161.238 41.1845C156.1 38.2867 150.981 35.4 149.818 35.6181C150.209 36.1914 158.281 40.7365 162.557 43.1439Z" fill="#B83BC8"/>
<path d="M162.557 43.1439C163.702 43.7885 164.574 44.2799 164.955 44.5007C165.353 45.2856 166.848 46.0204 167.896 46.535C168.099 46.635 168.286 46.7266 168.444 46.8087L168.401 46.9359C168.147 46.8904 167.842 46.8261 167.503 46.7549C165.86 46.4095 163.442 45.901 162.434 46.5889L162.43 46.8784C164.192 47.6848 168.511 48.5781 170.53 48.8676C170.352 48.9504 170.173 49.0331 169.993 49.1161C168.201 49.9433 166.35 50.7972 164.807 52.0266L164.867 52.2292C165.696 52.1286 167.242 51.5409 168.707 50.9836C170.235 50.4025 171.676 49.8546 172.127 49.9266C172.221 50.4758 171.397 53.5028 170.472 56.9021C169.367 60.9594 168.118 65.5472 168.114 67.0849C168.113 67.5044 168.096 67.8227 167.953 68.2226C167.693 68.9486 167.462 69.5966 167.764 70.3443L168.051 69.7143L168.187 69.9813C168.095 70.3624 168.045 70.6778 168.05 71.0703L168.358 71.0256C168.582 70.743 168.677 70.5597 168.723 70.1991C168.84 69.2891 169.107 68.6034 169.399 67.8556C169.517 67.5519 169.639 67.238 169.757 66.8945C169.889 66.5092 169.956 66.0831 170.021 65.6605C170.063 65.3948 170.104 65.1305 170.161 64.8787C170.689 62.5511 171.439 60.2568 172.186 57.9729C172.49 57.0454 172.793 56.1197 173.08 55.1942C173.214 54.763 173.317 54.3062 173.421 53.8472C173.581 53.1362 173.743 52.42 174.022 51.7866C174.209 51.3597 174.338 51.267 174.715 51.0295C175.683 51.2008 176.899 52.8747 177.993 54.3821C178.621 55.2459 179.208 56.0551 179.687 56.4956C179.756 56.5596 179.827 56.6219 179.898 56.6851C179.294 55.1175 178.362 53.6056 177.443 52.1131C176.949 51.3122 176.459 50.5169 176.025 49.7215C177.991 50.2749 180.268 51.1693 182.568 52.0721C185.767 53.3284 189.008 54.601 191.507 54.9936C190.791 54.6054 190.079 54.21 189.366 53.8146C187.108 52.5611 184.85 51.3076 182.475 50.2843C182.129 50.1349 181.458 49.9108 180.682 49.6514C178.958 49.0758 176.714 48.3259 176.33 47.8303C176.574 46.7983 178.16 45.3022 179.605 43.9377C180.466 43.125 181.278 42.3589 181.727 41.7654C181.764 41.7167 181.8 41.6671 181.836 41.6174C181.849 41.6002 181.862 41.5829 181.874 41.5657C179.977 42.5519 178.296 43.9625 176.65 45.3439C176.343 45.6016 176.037 45.8583 175.731 46.111L175.598 45.8841L175.54 46.1089C175.596 45.6634 175.652 45.2182 175.708 44.7733C176.081 41.819 176.453 38.8762 176.713 35.9044C174.847 39.3189 173.933 42.6034 173.212 46.3685C173.171 46.4166 173.138 46.4749 173.104 46.5332C173.037 46.6496 172.97 46.7659 172.849 46.8008C171.757 47.1167 166.487 44.1449 161.238 41.1845C156.1 38.2867 150.981 35.4 149.818 35.6181C150.209 36.1914 158.281 40.7365 162.557 43.1439Z" fill="#EA47FF"/>
<defs>
<filter id="filter0_d_223_968" x="0.0693874" y="0.413321" width="355.535" height="94.9204" filterUnits="userSpaceOnUse" color-interpolation-filters="sRGB">
<feFlood flood-opacity="0" result="BackgroundImageFix"/>
<feColorMatrix in="SourceAlpha" type="matrix" values="0 0 0 0 0 0 0 0 0 0 0 0 0 0 0 0 0 0 127 0" result="hardAlpha"/>
<feOffset/>
<feGaussianBlur stdDeviation="14.1337"/>
<feComposite in2="hardAlpha" operator="out"/>
<feColorMatrix type="matrix" values="0 0 0 0 0 0 0 0 0 0 0 0 0 0 0 0 0 0 0.5 0"/>
<feBlend mode="multiply" in2="BackgroundImageFix" result="effect1_dropShadow_223_968"/>
<feBlend mode="normal" in="SourceGraphic" in2="effect1_dropShadow_223_968" result="shape"/>
</filter>
</defs>
</svg>
