<svg width="242" height="270" viewBox="0 0 242 270" fill="none" xmlns="http://www.w3.org/2000/svg">
<path opacity="0.05" d="M107.427 0.219737L132.662 44.1768C142.171 61.4586 151.387 78.6165 163.07 94.5568C176.571 91.956 190.061 89.4933 203.36 85.9745L230.104 80.3105C219.656 99.7205 190.494 143.867 196.943 165.218C197.348 166.561 197.853 167.87 198.306 169.196C208.57 194.7 226.375 214.657 241.903 236.992C212.244 223.038 188.303 213.679 155.492 210.874C125.11 224.241 96.0155 267.76 81.0942 269.971C79.8385 259.229 80.8522 248.093 81.1819 237.284C82.9898 218.568 83.8314 199.924 84.5027 181.135C69.4699 167.562 52.316 158.413 34.284 149.521L0.974969 132.485C24.924 124.162 49.7976 117.729 74.3052 111.256L84.5649 108.01C97.1486 95.9084 98.0039 60.8746 100.238 43.5817L107.427 0.219737Z" fill="#B83BC8"/>
</svg>
