<svg width="72" height="76" viewBox="0 0 72 76" fill="none" xmlns="http://www.w3.org/2000/svg">
<path opacity="0.5" fill-rule="evenodd" clip-rule="evenodd" d="M30.6318 1.45243C30.0777 0.812781 29.4723 0.455052 28.6609 0.224297C28.6439 0.260841 28.6265 0.297185 28.609 0.333543C28.5818 0.390216 28.5545 0.446925 28.529 0.504488C27.5382 2.72918 27.0541 5.21742 26.5669 7.7215C26.1459 9.88567 25.7226 12.0617 24.9678 14.0896C21.5744 23.2067 16.1505 32.2942 8.90279 38.875C7.79174 39.8839 6.61411 40.8466 5.43426 41.8112C3.56976 43.3354 1.69972 44.8642 0.0781206 46.587C1.56789 46.779 3.0692 46.9258 4.57165 47.0728C7.15539 47.3255 9.74246 47.5785 12.2799 48.0623C22.8417 50.0771 31.9765 55.8417 38.5523 64.3305C41.2228 67.7777 43.0288 71.5259 44.821 75.4695C44.8853 75.4952 44.947 75.5202 45.0067 75.5443C45.7549 75.8469 46.1717 76.0155 47.0531 75.8187C47.9113 74.7905 47.8323 73.8449 47.7205 72.5674C46.7871 61.8893 50.5813 49.5293 57.5254 41.2758C59.2096 39.2743 61.1634 37.4294 63.3157 35.9393C64.1665 35.3508 65.25 34.8369 66.3636 34.3087C68.5293 33.2814 70.8089 32.2001 71.7117 30.4112C71.6593 30.298 71.6227 30.205 71.5918 30.1266C71.4789 29.8396 71.4428 29.7478 70.9892 29.5743C69.8892 29.1531 68.6134 28.9716 67.3441 28.791C66.4415 28.6626 65.5423 28.5347 64.7117 28.3214C63.8342 28.0978 62.9626 27.8525 62.0971 27.5855C61.2315 27.3185 60.3732 27.0301 59.522 26.7204C58.6706 26.4113 57.8276 26.081 56.993 25.7295C56.1583 25.378 55.3327 25.0062 54.5162 24.6139C53.7002 24.2215 52.8942 23.8091 52.0983 23.3768C51.3024 22.9445 50.5177 22.4927 49.744 22.0213C48.9708 21.5498 48.2096 21.0596 47.4603 20.5505C46.7111 20.0414 45.9751 19.5141 45.2524 18.9685C44.14 18.1153 43.0659 17.2168 42.0299 16.273C40.9939 15.3288 39.9996 14.3426 39.0471 13.3145C38.0942 12.2864 37.1865 11.2199 36.3239 10.115C35.4618 9.00998 34.6476 7.87066 33.8816 6.69704C33.4595 6.05609 33.0769 5.36052 32.6924 4.66135C32.0695 3.52882 31.4414 2.38687 30.6318 1.45243ZM33.8217 12.6175C32.7723 11.1358 31.6614 9.56729 30.5079 8.86809C26.3939 21.8671 19.0966 35.0455 8.63175 43.9946C23.8621 46.283 33.9303 52.1421 43.2847 64.4751L43.9665 65.3772L44.2269 65.1879L44.2695 64.6325C45.1405 53.8306 50.8808 42.1647 59.1965 35.1828C60.4629 34.1197 61.7904 33.1197 63.112 32.1241C63.262 32.0111 63.4119 31.8982 63.5616 31.7852C52.3441 28.8448 43.4881 23.4749 35.6026 14.944C35.0327 14.3274 34.4378 13.4874 33.8217 12.6175Z" fill="#B83BC8"/>
</svg>
