<svg width="33" height="39" viewBox="0 0 33 39" fill="none" xmlns="http://www.w3.org/2000/svg">
<path opacity="0.5" d="M21.5406 0.740048L22.374 7.74185C22.6489 10.4722 22.893 13.1707 23.5193 15.8478C25.3891 16.2509 27.2499 16.6712 29.1439 16.9459L32.8757 17.679C30.4802 19.5937 24.341 23.6541 24.0023 26.7384C23.981 26.9323 23.9743 27.1274 23.96 27.3218C23.8833 31.1457 25.074 34.6706 25.8439 38.3758C22.8086 34.9729 20.2546 32.47 16.2079 30.3221C11.5906 30.3765 5.49428 34.3604 3.46398 33.8299C3.88888 32.3866 4.62577 31.0165 5.25724 29.651C6.50896 27.3542 7.63315 25.0138 8.74339 22.6456C7.55928 20.0889 5.86255 17.9827 4.03939 15.8616L0.704981 11.8651C4.22395 12.1055 7.75826 12.6382 11.2478 13.1459L12.738 13.2897C15.0083 12.4269 17.0278 7.98952 18.2564 5.89799L21.5406 0.740048Z" fill="#B83BC8"/>
</svg>
