<svg width="70" height="74" viewBox="0 0 70 74" fill="none" xmlns="http://www.w3.org/2000/svg">
<path opacity="0.5" fill-rule="evenodd" clip-rule="evenodd" d="M50.7681 2.22755C50.6591 1.38831 50.3517 0.755831 49.8025 0.115584C49.7682 0.136682 49.7335 0.157349 49.6989 0.178024C49.6449 0.210251 49.5909 0.242499 49.5379 0.276428C47.4837 1.58463 45.7066 3.39233 43.9183 5.21154C42.3727 6.78381 40.8186 8.36467 39.0699 9.63908C31.208 15.3686 21.6693 19.9527 11.9933 21.4399C10.51 21.668 8.99658 21.8207 7.48035 21.9738C5.08429 22.2158 2.68109 22.4584 0.37798 22.9999C1.51426 23.9823 2.68514 24.9334 3.85689 25.8852C5.87194 27.522 7.88959 29.161 9.73842 30.965C17.4336 38.4747 21.8691 48.3236 22.6671 59.0318C22.9912 63.3803 22.4284 67.5026 21.7462 71.7803C21.7856 71.8372 21.8233 71.8921 21.8597 71.9452C22.3166 72.6105 22.5711 72.9811 23.4148 73.3035C24.6979 72.9198 25.1539 72.0877 25.7658 70.9607C30.8813 61.5413 40.8673 53.3288 51.2134 50.2793C53.7225 49.5398 56.37 49.0798 58.9873 49.0253C60.0215 49.0041 61.2087 49.1736 62.4288 49.3478C64.8018 49.6865 67.2995 50.0431 69.0397 49.0497C69.0585 48.9263 69.0793 48.8286 69.0969 48.7462C69.1611 48.4446 69.1816 48.3481 68.8992 47.9531C68.2144 46.9947 67.2507 46.1392 66.2919 45.288C65.6102 44.6827 64.9309 44.0797 64.3561 43.4434C63.7478 42.7726 63.1564 42.087 62.582 41.3866C62.0076 40.6862 61.451 39.972 60.9122 39.2439C60.3728 38.5162 59.8522 37.7754 59.3502 37.0217C58.8482 36.2679 58.365 35.5022 57.9007 34.7244C57.4368 33.9467 56.9923 33.158 56.5673 32.3582C56.1422 31.5585 55.7372 30.7485 55.3522 29.9284C54.9677 29.1085 54.6036 28.2795 54.2598 27.4415C53.916 26.6034 53.5933 25.7575 53.2918 24.9037C52.8352 23.5782 52.4354 22.2361 52.0924 20.8773C51.7497 19.5181 51.4649 18.1469 51.2381 16.7639C51.0109 15.3806 50.8426 13.9903 50.7332 12.5928C50.6243 11.1955 50.5742 9.79609 50.5832 8.3946C50.585 7.62717 50.6499 6.83597 50.7152 6.0407C50.8208 4.7525 50.9274 3.45357 50.7681 2.22755ZM47.2655 13.2984C47.2082 11.4837 47.1476 9.56262 46.5717 8.34288C35.9663 16.9117 22.6074 23.8731 8.94149 25.5594C20.3786 35.874 25.5404 46.317 26.5335 61.7644L26.6041 62.8929L26.9258 62.8788L27.2678 62.4392C33.9562 53.9125 45.182 47.353 55.97 46.1208C57.6127 45.9333 59.2716 45.8321 60.9233 45.7314C61.1107 45.72 61.298 45.7086 61.4852 45.697C53.7541 37.0535 49.3332 27.6876 47.4664 16.2215C47.3315 15.3927 47.2991 14.3639 47.2655 13.2984Z" fill="#B83BC8"/>
</svg>
