<svg width="260" height="198" viewBox="0 0 260 198" fill="none" xmlns="http://www.w3.org/2000/svg">
<path opacity="0.05" d="M83.7782 76.8771C91.2132 76.735 96.8805 76.6268 99.3686 76.6127C103.563 79.2988 112.969 78.5893 119.556 78.0924C120.836 77.9959 122.008 77.9075 123.016 77.8534L123.171 78.5973C121.804 79.1038 120.128 79.668 118.27 80.2931C109.266 83.3239 96.0101 87.7856 93.0686 94.0344L93.8779 95.4598C104.79 94.3337 128.424 86.2916 139.103 81.9082C138.471 82.8239 137.834 83.742 137.195 84.663C130.827 93.8431 124.252 103.321 120.253 113.748L121.127 114.564C124.885 111.692 130.737 104.389 136.284 97.464C142.07 90.243 147.525 83.4337 149.934 82.4891C151.969 84.8979 156.639 102.03 161.884 121.268C168.144 144.231 175.222 170.196 179.614 177.709C180.813 179.759 181.647 181.359 182.096 183.721C182.912 188.009 183.644 191.834 187.265 194.613L186.857 190.716L188.286 191.629C188.929 193.752 189.593 195.433 190.746 197.333L192.118 196.232C192.397 194.211 192.335 193.044 191.526 191.152C189.485 186.376 188.82 182.265 188.094 177.781C187.799 175.96 187.494 174.077 187.083 172.064C186.622 169.805 185.722 167.536 184.83 165.285C184.269 163.871 183.711 162.463 183.266 161.071C179.159 148.202 176.233 134.856 173.321 121.57C172.139 116.175 170.958 110.79 169.702 105.45C169.117 102.963 168.309 100.438 167.498 97.9013C166.241 93.9709 164.975 90.0129 164.515 86.1238C164.204 83.503 164.566 82.681 165.721 80.4416C170.936 78.4973 181.672 83.1724 191.34 87.3827C196.88 89.7955 202.07 92.0556 205.67 92.83C206.191 92.9431 206.716 93.0436 207.24 93.1503C199.793 87.2374 190.909 82.5366 182.139 77.896C177.433 75.4058 172.759 72.9329 168.358 70.2994C179.536 67.3559 193.214 65.1798 207.021 62.9833C226.235 59.9266 245.698 56.8303 259.015 51.5714C254.408 51.7333 249.798 51.8495 245.188 51.9656C230.573 52.3339 215.959 52.7021 201.439 54.5265C199.321 54.7923 195.406 55.6249 190.872 56.5891C180.814 58.7279 167.711 61.5144 164.416 60.1991C162.646 54.4624 166.084 42.6139 169.219 31.8078C171.086 25.371 172.846 19.304 173.334 15.119C173.375 14.7747 173.409 14.4292 173.442 14.0834C173.454 13.9633 173.465 13.8432 173.477 13.7231C167.056 23.9788 162.905 35.6861 158.84 47.1506C158.082 49.2892 157.327 51.4192 156.561 53.5299L155.261 52.805L155.62 54.0698C154.614 51.7359 153.61 49.403 152.607 47.0715C145.946 31.5891 139.311 16.167 132.047 0.92405C132.746 22.9376 137.72 41.5816 145.009 62.0195C144.95 62.37 144.954 62.7511 144.957 63.1322C144.963 63.8926 144.969 64.6528 144.482 65.1692C140.06 69.8458 105.824 70.4767 71.7189 71.1052C38.3364 71.7204 5.08002 72.3332 0.0333793 76.7356C3.58708 78.4092 56.0105 77.4076 83.7782 76.8771Z" fill="#B83BC8"/>
</svg>
