<svg width="95" height="90" viewBox="0 0 95 90" fill="none" xmlns="http://www.w3.org/2000/svg">
<path opacity="0.5" d="M69.7397 27.0473C67.6016 29.4326 65.9719 31.2508 65.2458 32.0392C63.1676 32.5729 60.63 35.7457 58.8525 37.9682C58.5074 38.3997 58.1909 38.7954 57.912 39.129L57.632 38.9594C57.8739 38.3796 58.1882 37.6856 58.5364 36.9167C60.2247 33.1885 62.71 27.7003 61.604 24.9386L60.9171 24.7752C58.0684 28.5454 53.6646 38.3562 51.9111 43.0092C51.808 42.5411 51.7056 42.0708 51.6029 41.599C50.5788 36.8966 49.5216 32.0415 47.4088 27.7198L46.895 27.7556C46.697 29.7835 47.2813 33.772 47.8352 37.5538C48.4129 41.4973 48.9576 45.2161 48.5482 46.2527C47.1913 46.187 40.4202 42.6295 32.8162 38.6344C23.7403 33.8659 13.4779 28.4741 9.81996 27.6528C8.8218 27.4287 8.07282 27.2218 7.19635 26.6702C5.60533 25.6684 4.18467 24.7761 2.24543 25.1014L3.59373 26.117L2.88655 26.2994C2.0282 25.8789 1.30355 25.5944 0.366385 25.4002L0.31063 26.156C0.865473 26.8371 1.25171 27.1603 2.08548 27.4607C4.19005 28.2196 5.68134 29.2168 7.30794 30.3044C7.9685 30.7461 8.65136 31.2027 9.40669 31.6643C10.2542 32.1822 11.2336 32.5648 12.205 32.9442C12.8156 33.1827 13.423 33.42 13.9924 33.6889C19.2547 36.1722 24.3204 39.1684 29.3634 42.151C31.4111 43.3621 33.4551 44.5711 35.5069 45.7425C36.4627 46.2885 37.4957 46.7753 38.5334 47.2643C40.1414 48.0219 41.7606 48.7849 43.1216 49.7817C44.0391 50.453 44.1919 50.8085 44.5587 51.83C43.6403 54.0448 39.0149 56.0562 34.8493 57.8675C32.4623 58.9055 30.2262 59.8778 28.9253 60.7852C28.7364 60.9164 28.5506 61.0524 28.3633 61.1861C32.4133 60.5748 36.5033 59.1545 40.541 57.7525C42.7076 57.0001 44.8592 56.253 46.9813 55.6389C44.6276 60.0264 41.2976 64.9769 37.9364 69.9738C33.259 76.9277 28.5209 83.9716 26.2688 89.7132C27.5704 88.2134 28.8873 86.7262 30.2041 85.239C34.3787 80.5242 38.5531 75.8096 42.2409 70.6972C42.7791 69.9514 43.666 68.4729 44.6932 66.7606C46.9718 62.9624 49.9404 58.0141 51.3225 57.3615C53.6502 58.4881 56.3758 63.0502 58.8617 67.2108C60.3425 69.6892 61.7381 72.0251 62.9139 73.4077C63.0103 73.5218 63.1094 73.6338 63.2086 73.7458C63.2431 73.7846 63.2776 73.8235 63.312 73.8626C61.9644 68.8277 59.4927 64.0821 57.0724 59.4351C56.6209 58.5682 56.1712 57.7048 55.7309 56.8435L56.3409 56.6468L55.8368 56.3886C56.8679 56.7566 57.898 57.1251 58.9274 57.4934C65.7632 59.9393 72.5723 62.3757 79.5096 64.5611C72.3655 58.3186 65.0286 54.4126 56.4461 50.7101C56.353 50.5886 56.2319 50.4777 56.1109 50.3668C55.8694 50.1455 55.6279 49.9242 55.6082 49.619C55.4322 46.8523 65.2848 35.8754 75.0995 24.9406C84.7063 14.2375 94.2768 3.57485 94.3708 0.691624C92.7999 1.32042 77.7247 18.1389 69.7397 27.0473Z" fill="#B83BC8"/>
</svg>
