<svg width="82" height="34" viewBox="0 0 82 34" fill="none" xmlns="http://www.w3.org/2000/svg">
<g opacity="0.5">
<path fill-rule="evenodd" clip-rule="evenodd" d="M36.866 6.48107C37.0679 5.92773 37.1106 5.81527 37.5543 5.43742C39.2447 4.97552 42.0834 5.92461 43.6498 6.66707C46.4493 7.99479 48.5337 10.205 49.5586 13.1609C49.6271 13.3643 49.6907 13.5692 49.7492 13.7757C49.8077 13.9822 49.8611 14.19 49.9095 14.3991C49.9579 14.6082 50.0013 14.8183 50.0396 15.0295C50.0776 15.2407 50.1105 15.4527 50.1382 15.6657C50.1659 15.8784 50.1884 16.0918 50.2057 16.3058C50.2231 16.5199 50.2352 16.7341 50.2422 16.9487C50.249 17.1632 50.2505 17.3778 50.2469 17.5923C50.2433 17.8071 50.2343 18.0215 50.2201 18.2355C50.2059 18.4498 50.1865 18.6636 50.1619 18.8768C50.1373 19.0901 50.1075 19.3025 50.0726 19.5142C50.0376 19.7259 49.9975 19.9367 49.9522 20.1466C49.9069 20.3564 49.8566 20.565 49.8012 20.7723C49.7456 20.9796 49.685 21.1854 49.6195 21.3898C49.554 21.5943 49.4835 21.7969 49.4079 21.9977C49.3324 22.1987 49.252 22.3977 49.1669 22.5946C49.0817 22.7915 48.9918 22.9862 48.8971 23.1787C47.2731 26.4197 44.1933 29.3919 40.7417 30.5286C39.1841 30.0488 37.6813 29.3499 36.3831 28.3545C33.4097 26.075 31.3261 21.9728 30.8435 18.2885C30.3777 14.7291 31.4627 10.7856 33.6977 7.97027C34.3624 7.13325 35.2665 6.1219 36.3578 5.99271L36.866 6.48107ZM36.866 6.48107C36.6587 8.42011 36.5104 10.2487 36.9343 12.1691C37.3097 13.868 38.0194 15.3319 39.5292 16.3043C39.3405 16.6978 39.1546 17.0939 38.9985 17.5017C38.7097 18.2558 38.5365 19.1232 38.9671 19.8668C39.5391 20.854 40.8336 21.2358 41.9237 21.5573C42.02 21.5858 42.1148 21.6137 42.2073 21.6416C42.2707 21.6607 42.3331 21.6797 42.3943 21.6989C41.4036 22.5658 40.6694 23.4966 39.912 24.5621C40.1792 24.4241 40.4703 24.2341 40.7758 24.0347C41.5804 23.5096 42.4846 22.9196 43.3136 23.0425C43.5351 23.0754 43.5458 23.0982 43.6094 23.233L43.6099 23.234C43.633 23.2827 43.6628 23.3459 43.7119 23.4293C43.5595 24.7674 42.8622 26.0026 42.2069 27.1632L42.14 27.2817L42.1117 27.2739C41.819 27.1934 41.5294 27.1136 41.2448 27.0066C39.0552 26.1836 37.6456 24.464 36.7441 22.3507C34.5402 17.1822 34.2995 11.2059 36.3578 5.99271L36.866 6.48107Z" fill="#B83BC8"/>
<path fill-rule="evenodd" clip-rule="evenodd" d="M39.0036 0.0581156C38.8331 0.0673783 38.6631 0.0856278 38.4934 0.10668C36.4559 0.30818 34.4459 0.837268 32.4642 1.35888C32.3005 1.40198 32.137 1.44502 31.9736 1.48782C31.2409 1.67891 30.5121 1.88434 29.7872 2.10409C29.0625 2.32382 28.3423 2.55772 27.6267 2.80581C26.9111 3.05387 26.2006 3.31591 25.4954 3.59193C24.7901 3.86793 24.0904 4.15765 23.3962 4.46109C22.7024 4.76461 22.0147 5.08176 21.3332 5.41252C20.6515 5.74302 19.9766 6.08675 19.3086 6.44371C18.6404 6.80094 17.9795 7.17113 17.326 7.55429C16.6722 7.9372 16.0262 8.33295 15.388 8.74153C14.75 9.15012 14.1202 9.57103 13.4985 10.0043C12.8768 10.4375 12.2638 10.8828 11.6595 11.3401C11.0552 11.7975 10.4601 12.2667 9.87444 12.7476C9.28848 13.2283 8.71223 13.7203 8.14569 14.2236C7.57914 14.7271 7.02256 15.2416 6.47594 15.7669C5.92959 16.2922 5.39358 16.8281 4.86792 17.3744C4.34253 17.921 3.82788 18.4776 3.32397 19.0442C2.82031 19.6107 2.3279 20.187 1.84677 20.7731C1.18006 21.5926 0.56448 22.4491 0 23.3425C13.7846 29.5538 28.626 34.7966 44.0031 33.8996C55.5508 33.4397 66.5332 28.7895 75.6549 21.8463C77.7816 20.2275 80.0255 18.4243 81.8214 16.444L82 16.244C80.7245 15.0712 79.1598 14.1144 77.6338 13.1812C77.0655 12.8337 76.5026 12.4895 75.962 12.1386C65.2579 5.19032 52.0316 -0.648624 39.0036 0.0581156ZM53.7098 5.70748C49.0015 4.0436 42.5026 2.97454 37.5147 3.6096C33.0987 4.07239 28.7125 5.34598 25.7846 8.91081C23.4832 11.7122 22.4703 15.4326 22.8387 19.0259C23.2048 22.595 25.0159 25.6765 27.794 27.9016C32.3711 31.5672 37.2822 31.4294 42.8629 31.1559C47.1787 30.4869 51.9589 28.7752 54.6117 25.0792C56.8832 21.9148 57.7982 17.5351 57.1627 13.7065C56.675 10.767 55.2542 8.2092 53.7098 5.70748ZM77.9993 16.8487C72.325 13.2473 62.8346 7.33291 56.3047 5.84798C56.4763 6.05422 56.6425 6.26448 56.8035 6.47876C56.9648 6.6933 57.1205 6.91161 57.2706 7.13367C57.4209 7.35599 57.5658 7.58182 57.705 7.81115C57.8442 8.04048 57.9778 8.27305 58.1056 8.50886C58.2335 8.74468 58.3554 8.9836 58.4713 9.22564C58.5873 9.46768 58.6972 9.71231 58.8009 9.95954C58.905 10.207 59.0028 10.4568 59.0944 10.709C59.1861 10.9614 59.2713 11.2158 59.3503 11.4721C59.4295 11.7287 59.5022 11.987 59.5685 12.2472C59.635 12.5072 59.6949 12.7687 59.7482 13.0317C59.8018 13.2948 59.8488 13.559 59.8891 13.8244C59.9295 14.0898 59.9634 14.3559 59.9909 14.6229C60.0183 14.8898 60.039 15.1574 60.053 15.4257C60.0672 15.6936 60.0747 15.9619 60.0755 16.2304C60.0765 16.4989 60.0708 16.7671 60.0584 17.0351C60.0463 17.3033 60.0273 17.5711 60.0017 17.8383C59.981 18.086 59.9544 18.3331 59.9218 18.5796C59.8889 18.8258 59.8499 19.0712 59.8049 19.3158C59.7601 19.5602 59.7093 19.8034 59.6523 20.0454C59.5951 20.2872 59.5321 20.5276 59.4633 20.7665C59.3944 21.0051 59.3197 21.2421 59.2392 21.4774C59.1587 21.7125 59.0724 21.9454 58.9803 22.1763C58.8882 22.4069 58.7905 22.6352 58.6872 22.8612C58.5837 23.0871 58.4747 23.3104 58.3603 23.5309C58.2459 23.7516 58.1262 23.9693 58.0012 24.1838C57.8759 24.3984 57.7455 24.6097 57.6099 24.8177C57.4743 25.026 57.3336 25.2307 57.1879 25.4318C57.0422 25.6328 56.8915 25.8302 56.736 26.024C56.5807 26.2176 56.4206 26.4072 56.2557 26.5929C56.0909 26.7787 55.9215 26.9601 55.7476 27.1373C55.5737 27.3148 55.3956 27.4877 55.2134 27.656C55.0309 27.8244 54.8444 27.9882 54.654 28.1475C53.9276 28.7511 53.1317 29.2628 52.3223 29.7461C57.0435 28.5872 61.4715 27.2436 65.7944 24.9457C69.7771 22.7573 74.7103 19.9614 77.9993 16.8487ZM22.263 10.4676C22.901 9.4429 23.9236 7.80056 23.6975 7.62007C22.7627 8.07924 21.8391 8.56047 20.9267 9.06374C20.0147 9.56702 19.115 10.0917 18.2278 10.6378C17.3406 11.1841 16.4668 11.7511 15.6065 12.3387C14.7462 12.9265 13.9004 13.5346 13.0691 14.1629C12.2375 14.791 11.4215 15.4385 10.621 16.1055C9.82022 16.7727 9.03574 17.4585 8.26757 18.1628C7.49941 18.8674 6.74833 19.5897 6.01434 20.3299C5.28059 21.0702 4.56471 21.8276 3.86668 22.602C6.6481 23.8595 9.54585 24.8959 12.4317 25.9281L12.4331 25.9286L12.4343 25.9291C13.3456 26.255 14.2557 26.5805 15.1605 26.9124C19.4212 28.3008 23.7348 29.355 28.1061 30.3329C24.3796 27.7187 21.4112 24.5558 20.575 19.947C20.0439 17.0199 20.4221 13.8571 21.8142 11.2082C21.8812 11.0808 22.05 10.8096 22.2613 10.4702L22.263 10.4676Z" fill="#B83BC8"/>
</g>
</svg>
