<svg width="102" height="87" viewBox="0 0 102 87" fill="none" xmlns="http://www.w3.org/2000/svg">
<path opacity="0.5" d="M31.0585 18.3773C33.8497 19.949 35.9772 21.147 36.904 21.6854C37.8745 23.599 41.521 25.3905 44.0753 26.6453C44.5712 26.8889 45.0259 27.1124 45.4119 27.3125L45.3069 27.6226C44.6885 27.5118 43.943 27.355 43.117 27.1813C39.1119 26.3391 33.2161 25.0994 30.7589 26.7765L30.7479 27.4825C35.0449 29.4485 45.5759 31.6266 50.498 32.3324C50.0633 32.5342 49.6263 32.7359 49.1879 32.9383C44.8181 34.955 40.3065 37.0371 36.544 40.0344L36.69 40.5283C38.7128 40.2831 42.4805 38.8502 46.053 37.4915C49.7784 36.0748 53.2914 34.7388 54.392 34.9144C54.6213 36.2533 52.6121 43.6335 50.3559 51.9215C47.6629 61.8138 44.6179 72.9993 44.607 76.7484C44.604 77.7714 44.564 78.5474 44.215 79.5224C43.581 81.2924 43.017 82.8724 43.754 84.6954L44.454 83.1594L44.785 83.8104C44.56 84.7393 44.439 85.5084 44.452 86.4654L45.202 86.3564C45.7469 85.6674 45.979 85.2204 46.092 84.3414C46.3779 82.1225 47.0289 80.4508 47.7391 78.6275C48.0275 77.8871 48.3256 77.1216 48.613 76.2844C48.9354 75.3449 49.097 74.3059 49.2574 73.2755C49.3583 72.6278 49.4586 71.9835 49.598 71.3694C50.8846 65.6946 52.7144 60.1008 54.5359 54.5322C55.2756 52.271 56.014 50.014 56.714 47.7574C57.0403 46.7061 57.2922 45.5923 57.5453 44.4734C57.9373 42.7397 58.3321 40.9937 59.011 39.4494C59.468 38.4084 59.782 38.1824 60.7 37.6034C63.061 38.021 66.025 42.1021 68.6943 45.7774C70.2239 47.8835 71.6568 49.8564 72.824 50.9304C72.993 51.0864 73.166 51.2384 73.337 51.3924C71.8643 47.5703 69.5932 43.8842 67.3512 40.2453C66.1481 38.2926 64.9534 36.3535 63.895 34.4144C68.6876 35.7637 74.241 37.9443 79.8466 40.1454C87.6474 43.2085 95.5492 46.3112 101.642 47.2684C99.8962 46.3219 98.1594 45.3578 96.4227 44.3938C90.9167 41.3375 85.4109 38.2814 79.622 35.7864C78.7775 35.4222 77.1422 34.8759 75.2483 34.2433C71.0472 32.84 65.574 31.0117 64.638 29.8034C65.2346 27.2872 69.0993 23.6395 72.624 20.3127C74.7234 18.3311 76.7023 16.4633 77.798 15.0164C77.8885 14.8976 77.9764 14.7766 78.0643 14.6555C78.0948 14.6134 78.1253 14.5713 78.156 14.5294C73.5316 16.9338 69.4329 20.3732 65.4191 23.7412C64.6704 24.3695 63.9247 24.9952 63.179 25.6114L62.855 25.0583L62.712 25.6064C62.8482 24.52 62.9853 23.4347 63.1223 22.3499C64.0321 15.147 64.9384 7.97217 65.572 0.726347C61.022 9.05136 58.795 17.0594 57.036 26.2393C56.9375 26.3566 56.8554 26.4987 56.7733 26.6409C56.6095 26.9246 56.4457 27.2081 56.152 27.2934C53.4888 28.0635 40.641 20.8178 27.8426 13.5999C15.3153 6.53491 2.83533 -0.50339 0 0.0283486C0.953613 1.42608 20.6341 12.5077 31.0585 18.3773Z" fill="#B83BC8"/>
</svg>
