<svg width="227" height="125" viewBox="0 0 227 125" fill="none" xmlns="http://www.w3.org/2000/svg">
<g opacity="0.05">
<path fill-rule="evenodd" clip-rule="evenodd" d="M121.735 26.1243C123.064 24.9568 123.338 24.7219 125.051 24.3649C130.169 25.58 136.283 32.1655 139.342 36.3758C144.808 43.9024 147.12 52.7254 145.567 61.9885C145.455 62.6231 145.328 63.2545 145.185 63.8828C145.042 64.511 144.883 65.1355 144.71 65.756C144.537 66.3766 144.349 66.9927 144.146 67.6042C143.942 68.2153 143.723 68.8214 143.49 69.4225C143.257 70.0228 143.009 70.6174 142.747 71.2063C142.485 71.7952 142.208 72.3773 141.918 72.9526C141.627 73.5276 141.323 74.0952 141.004 74.6552C140.686 75.216 140.354 75.7681 140.008 76.3115C139.662 76.8556 139.303 77.3909 138.932 77.9175C138.56 78.4439 138.176 78.9609 137.779 79.4684C137.383 79.9759 136.974 80.4736 136.552 80.9614C136.131 81.4492 135.698 81.9263 135.254 82.3928C134.809 82.8589 134.353 83.3141 133.887 83.7585C133.42 84.2029 132.943 84.6353 132.455 85.0556C131.966 85.4766 131.468 85.8853 130.961 86.2816C130.453 86.6778 129.936 87.0614 129.409 87.4323C120.467 93.6354 108.075 97.0352 97.3447 95.0635C93.9311 91.558 90.977 87.5542 88.9887 83.0634C84.4342 72.7786 84.8469 58.9716 88.8769 48.5695C92.771 38.5206 101.304 29.6914 111.244 25.4893C114.2 24.2402 118.038 22.8764 121.099 24.1063L121.735 26.1243ZM121.735 26.1243C118.399 30.9352 115.377 35.5398 113.731 41.2098C112.275 46.2265 112.039 51.1049 114.618 55.8396C113.554 56.6048 112.494 57.3809 111.496 58.2309C109.65 59.8023 107.946 61.8386 108.01 64.4175C108.097 67.8418 110.959 70.7105 113.368 73.1261C113.581 73.3396 113.791 73.5496 113.994 73.7561C114.134 73.8978 114.271 74.0378 114.405 74.1762C110.547 75.035 107.273 76.4312 103.744 78.1486C104.647 78.1694 105.687 78.0877 106.779 78.002C109.654 77.7763 112.886 77.5226 114.893 79.0394C115.43 79.4447 115.425 79.5202 115.399 79.9669L115.399 79.9704C115.389 80.1318 115.377 80.3413 115.386 80.6318C113.059 83.9382 109.445 86.1892 106.048 88.3045L105.701 88.5205L105.638 88.4592C104.982 87.8257 104.334 87.199 103.738 86.5074C99.1532 81.1882 97.9133 74.629 98.579 67.7634C100.209 50.9739 108.174 34.8806 121.099 24.1063L121.735 26.1243Z" fill="#B83BC8"/>
<path fill-rule="evenodd" clip-rule="evenodd" d="M136.61 12.2763C136.147 12.0555 135.673 11.8589 135.196 11.6703C129.537 9.26933 123.48 7.7711 117.508 6.29405C117.014 6.17202 116.521 6.05014 116.029 5.9279C113.824 5.37709 111.608 4.86963 109.382 4.40552C107.156 3.94171 104.922 3.52177 102.679 3.14573C100.437 2.76961 98.1878 2.43778 95.9323 2.15022C93.6768 1.86261 91.4163 1.61918 89.1507 1.41991C86.8857 1.22121 84.6174 1.06732 82.3458 0.958262C80.074 0.848148 77.8012 0.782787 75.5275 0.762129C73.2527 0.741784 70.9786 0.766237 68.7054 0.835487C66.4318 0.903682 64.1602 1.01688 61.8906 1.17507C59.6217 1.33365 57.3565 1.53641 55.0951 1.78339C52.8337 2.03038 50.5777 2.32162 48.3273 2.65711C46.0768 2.99261 43.8339 3.37261 41.5986 3.79712C39.363 4.22058 37.1367 4.68772 34.9197 5.19859C32.7024 5.71013 30.4956 6.26471 28.2994 6.86235C26.104 7.46036 23.9206 8.10095 21.7494 8.78412C19.5786 9.46834 17.4216 10.1943 15.2786 10.9621C13.1363 11.7302 11.0096 12.5402 8.89862 13.392C5.96269 14.592 3.1083 15.9629 0.335372 17.5048C27.7186 53.7059 59.28 88.8756 101.088 108.639C132.176 124.043 167.805 127.593 201.83 122.424C209.763 121.219 218.27 119.697 225.852 117.063L226.61 116.793C224.937 111.867 222.191 107.095 219.513 102.44C218.515 100.707 217.528 98.9899 216.608 97.2875C198.402 63.5771 171.954 29.1605 136.61 12.2763ZM167.23 48.3229C157.218 37.1638 141.633 24.9956 127.576 19.4917C115.275 14.3568 101.885 11.4012 89.0408 16.581C78.946 20.6507 70.9238 28.9963 66.7241 38.9942C62.5531 48.9252 62.8909 59.6506 67.0092 69.5109C73.7949 85.7555 86.9331 92.4591 102.031 99.7685C114.366 104.216 129.424 106.584 141.732 100.663C152.27 95.5935 160.983 85.3702 164.818 74.3677C167.763 65.9208 167.699 57.1369 167.23 48.3229ZM215.199 112.63C205.43 94.9754 188.934 65.7356 173.865 52.427C174.02 53.2173 174.156 54.0106 174.272 54.8068C174.388 55.6041 174.484 56.4033 174.56 57.2045C174.636 58.0066 174.693 58.81 174.73 59.6146C174.767 60.4192 174.784 61.2242 174.782 62.0295C174.779 62.8348 174.757 63.6398 174.714 64.4444C174.671 65.249 174.608 66.0516 174.526 66.8524C174.444 67.6542 174.342 68.4532 174.221 69.2495C174.099 70.0464 173.958 70.8393 173.797 71.6282C173.637 72.4182 173.456 73.2037 173.257 73.9846C173.058 74.7652 172.839 75.5405 172.601 76.3103C172.364 77.0805 172.108 77.8443 171.832 78.6016C171.557 79.359 171.263 80.1091 170.951 80.8519C170.639 81.5948 170.309 82.3296 169.96 83.0565C169.612 83.7831 169.245 84.5007 168.861 85.2093C168.478 85.9183 168.077 86.6168 167.658 87.3051C167.24 87.9944 166.805 88.6726 166.353 89.3398C165.942 89.9627 165.516 90.5755 165.076 91.1779C164.635 91.7793 164.179 92.3699 163.708 92.9497C163.239 93.5291 162.755 94.0968 162.257 94.6526C161.758 95.2073 161.246 95.7499 160.721 96.2804C160.196 96.8103 159.658 97.3272 159.108 97.8314C158.557 98.3348 157.995 98.8244 157.42 99.3002C156.845 99.7753 156.259 100.236 155.662 100.683C155.064 101.129 154.456 101.561 153.837 101.977C153.218 102.394 152.589 102.796 151.951 103.181C151.312 103.566 150.665 103.935 150.008 104.288C149.351 104.642 148.686 104.979 148.013 105.299C147.339 105.619 146.658 105.922 145.97 106.209C145.282 106.496 144.587 106.765 143.886 107.017C143.184 107.269 142.477 107.504 141.763 107.72C141.05 107.938 140.332 108.137 139.609 108.318C138.886 108.499 138.159 108.663 137.428 108.808C134.646 109.353 131.813 109.557 128.984 109.665C143.092 113.405 156.692 116.237 171.389 116.402C185.032 116.367 202.054 116.098 215.199 112.63ZM77.5218 15.6156C80.6773 13.8338 85.735 10.9778 85.3989 10.1769C82.275 10.0416 79.149 9.98062 76.021 9.99392C72.8936 10.0076 69.7682 10.0956 66.6447 10.2578C63.5208 10.4207 60.4028 10.6573 57.2905 10.9676C54.1778 11.2786 51.0742 11.6638 47.9797 12.1231C44.8849 12.5814 41.803 13.1133 38.734 13.7188C35.664 14.3246 32.6102 15.0028 29.5727 15.7533C26.5348 16.5044 23.5164 17.327 20.5174 18.221C17.5187 19.116 14.5426 20.0815 11.5892 21.1175C17.1084 28.4331 23.2523 35.3337 29.3709 42.2058L29.3739 42.2092L29.3766 42.2122C31.3086 44.3822 33.2382 46.5493 35.1446 48.7258C44.3734 58.515 54.2222 67.4995 64.3332 76.3662C58.2758 64.1159 55.0057 51.5109 59.4341 38.1638C62.2465 29.6872 67.794 21.8975 75.2736 16.9215C75.6333 16.682 76.4687 16.2103 77.5137 15.6202L77.5218 15.6156Z" fill="#B83BC8"/>
</g>
</svg>
