<svg width="78" height="164" viewBox="0 0 78 164" fill="none" xmlns="http://www.w3.org/2000/svg">
<path opacity="0.05" fill-rule="evenodd" clip-rule="evenodd" d="M-10.7791 3.32575C-11.9706 1.9503 -13.2725 1.18107 -15.0172 0.684871C-15.0537 0.763452 -15.0912 0.841602 -15.1288 0.919784C-15.1874 1.04165 -15.246 1.16359 -15.3008 1.28737C-17.4315 6.07115 -18.4723 11.4217 -19.5199 16.8062C-20.4252 21.4599 -21.3355 26.139 -22.9585 30.4996C-30.2554 50.1043 -41.9184 69.6453 -57.5034 83.796C-59.8925 85.9655 -62.4247 88.0357 -64.9618 90.1098C-68.971 93.3874 -72.9922 96.6747 -76.4792 100.379C-73.2757 100.792 -70.0474 101.108 -66.8167 101.424C-61.2608 101.967 -55.6978 102.511 -50.2415 103.552C-27.5304 107.884 -7.88771 120.28 6.25252 138.533C11.9949 145.946 15.8783 154.006 19.7321 162.486C19.8703 162.541 20.0031 162.595 20.1314 162.647C21.7403 163.297 22.6365 163.66 24.5319 163.237C26.3773 161.026 26.2073 158.992 25.967 156.245C23.9599 133.284 32.1185 106.706 47.0506 88.9585C50.6721 84.6547 54.8733 80.6875 59.5016 77.4834C61.331 76.2179 63.6609 75.1128 66.0554 73.977C70.7124 71.768 75.6142 69.4429 77.5555 65.5962C77.4428 65.3527 77.3641 65.1528 77.2978 64.9841C77.055 64.3671 76.9773 64.1697 76.002 63.7967C73.6366 62.891 70.8933 62.5007 68.1638 62.1123C66.2231 61.8362 64.2893 61.5611 62.5034 61.1024C60.6164 60.6217 58.7423 60.0942 56.8811 59.5201C55.0198 58.9459 53.1741 58.3258 51.344 57.6599C49.5131 56.9952 47.7003 56.2849 45.9056 55.5291C44.1109 54.7733 42.3357 53.9737 40.5799 53.1302C38.8251 52.2864 37.0921 51.3997 35.3806 50.4701C33.6692 49.5405 31.9817 48.5689 30.3181 47.5553C28.6555 46.5415 27.0187 45.4872 25.4075 44.3925C23.7964 43.2978 22.2138 42.1639 20.6598 40.9909C18.2678 39.1561 15.9581 37.2241 13.7305 35.1947C11.5026 33.1644 9.36457 31.0438 7.31641 28.8329C5.26733 26.6223 3.31543 24.329 1.46064 21.953C-0.393213 19.5769 -2.14381 17.127 -3.7911 14.6033C-4.69869 13.2251 -5.52136 11.7294 -6.34828 10.2259C-7.68774 7.79064 -9.03834 5.33509 -10.7791 3.32575ZM-3.91996 27.3341C-6.17645 24.148 -8.56511 20.7752 -11.0455 19.2718C-19.8919 47.2237 -35.5835 75.5614 -58.0862 94.8049C-25.3362 99.7255 -3.68623 112.324 16.4287 138.844L17.8947 140.784L18.4547 140.377L18.5462 139.183C20.4191 115.955 32.7626 90.8699 50.644 75.8566C53.3671 73.5707 56.2216 71.4204 59.0636 69.2794C59.3861 69.0365 59.7084 68.7937 60.0304 68.5508C35.9091 62.2279 16.8659 50.681 -0.0902884 32.3369C-1.31584 31.011 -2.59512 29.2047 -3.91996 27.3341Z" fill="#B83BC8"/>
</svg>
