<svg width="75" height="40" viewBox="0 0 75 40" fill="none" xmlns="http://www.w3.org/2000/svg">
<g opacity="0.5">
<path fill-rule="evenodd" clip-rule="evenodd" d="M28.8158 10.7905C28.8123 10.2015 28.8132 10.0812 29.0976 9.57251C30.5213 8.55097 33.5129 8.45227 35.2398 8.60284C38.3264 8.87274 41.0499 10.2189 43.0399 12.633C43.175 12.7997 43.3059 12.9697 43.4327 13.1429C43.5594 13.3162 43.6818 13.4923 43.8 13.6715C43.9182 13.8507 44.032 14.0325 44.1414 14.2172C44.2506 14.4019 44.3553 14.5892 44.4554 14.7792C44.5554 14.969 44.6508 15.1612 44.7416 15.3558C44.8324 15.5504 44.9184 15.747 44.9996 15.9457C45.0806 16.1445 45.1568 16.345 45.2281 16.5474C45.2995 16.75 45.3658 16.9542 45.427 17.1597C45.4882 17.3656 45.5445 17.5727 45.5957 17.7812C45.6469 17.9896 45.6929 18.1992 45.7339 18.4098C45.7748 18.6204 45.8106 18.8319 45.8412 19.0444C45.8718 19.257 45.8973 19.47 45.9175 19.6836C45.9375 19.8973 45.9524 20.1113 45.9622 20.3258C45.972 20.5402 45.9765 20.7547 45.9755 20.9692C45.9747 21.184 45.9687 21.3985 45.9574 21.6127C45.9461 21.827 45.9296 22.0408 45.9078 22.2542C45.514 25.8579 43.6618 29.7164 40.8219 31.9838C39.1947 32.0763 37.5426 31.9445 35.9791 31.4634C32.398 30.3618 29.0165 27.2418 27.2813 23.956C25.6053 20.7816 25.2494 16.7071 26.3642 13.2897C26.6958 12.2736 27.1913 11.0107 28.1693 10.5097L28.8158 10.7905ZM28.8158 10.7905C29.2966 12.6804 29.7942 14.4462 30.8603 16.0988C31.8037 17.5607 32.9787 18.6859 34.7326 19.0718C34.6928 19.5063 34.6564 19.9424 34.652 20.379C34.6439 21.1865 34.7836 22.0599 35.4461 22.6071C36.326 23.3334 37.6725 23.2405 38.8063 23.1624C38.9065 23.1555 39.005 23.1487 39.1015 23.1426C39.1676 23.1384 39.2327 23.1345 39.2967 23.1312C38.6699 24.2889 38.3058 25.417 37.9667 26.6795C38.1691 26.4571 38.3759 26.1777 38.5928 25.8844C39.1643 25.112 39.8064 24.244 40.6264 24.0707C40.8454 24.0244 40.8634 24.042 40.97 24.1462L40.9708 24.147C41.0094 24.1846 41.0594 24.2335 41.1344 24.2946C41.4575 25.602 41.2338 27.0027 41.0237 28.3189L41.0022 28.4532L40.973 28.4558C40.6705 28.4822 40.3713 28.5083 40.0672 28.507C37.7281 28.4979 35.808 27.3768 34.2271 25.7095C30.3614 21.6319 28.0549 16.1133 28.1693 10.5097L28.8158 10.7905Z" fill="#B83BC8"/>
<path fill-rule="evenodd" clip-rule="evenodd" d="M28.5832 4.02521C28.4266 4.09323 28.2736 4.16955 28.1219 4.24835C26.282 5.14669 24.5819 6.34255 22.9059 7.5215C22.7674 7.61891 22.6291 7.71619 22.4909 7.81319C21.8706 8.24744 21.2589 8.69378 20.6558 9.15219C20.053 9.6105 19.4594 10.0805 18.8749 10.5622C18.2904 11.044 17.7157 11.537 17.1507 12.0413C16.5856 12.5456 16.0306 13.0608 15.4855 13.5869C14.9407 14.1131 14.4065 14.6498 13.8829 15.1971C13.3589 15.7443 12.8459 16.3015 12.344 16.8688C11.842 17.4363 11.3513 18.0134 10.8721 18.6002C10.3926 19.1867 9.92481 19.7827 9.46877 20.3879C9.01297 20.9931 8.5691 21.6069 8.13718 22.2295C7.70526 22.8521 7.28566 23.483 6.87839 24.1221C6.47112 24.7613 6.07669 25.4083 5.69511 26.0631C5.31319 26.7177 4.9443 27.3796 4.58844 28.0486C4.23268 28.7179 3.89004 29.3939 3.56054 30.0767C3.23129 30.7594 2.91539 31.4483 2.61286 32.1435C2.31066 32.8389 2.02201 33.5398 1.7469 34.2464C1.47203 34.9529 1.2111 35.6646 0.96412 36.3814C0.62447 37.3818 0.345626 38.399 0.127553 39.4331C15.2123 40.4561 30.9504 40.2032 45.053 34.0083C55.718 29.5564 64.3941 21.3733 70.5274 11.6885C71.9574 9.4305 73.433 6.9588 74.427 4.47711L74.5248 4.22743C72.9208 3.5722 71.1209 3.22005 69.3654 2.87662C68.7117 2.74873 68.0641 2.62204 67.4352 2.48136C54.9816 -0.305149 40.5498 -1.17348 28.5832 4.02521ZM44.3362 4.20054C39.3431 4.28017 32.8787 5.54083 28.424 7.87286C24.4455 9.8443 20.7773 12.5654 19.2737 16.9266C18.0917 20.354 18.4377 24.1943 20.0342 27.4344C21.6201 30.6527 24.3907 32.9109 27.7697 34.0294C33.3368 35.8719 37.8925 34.0328 43.0288 31.8332C46.8417 29.7035 50.7267 26.4344 51.9266 22.0461C52.9541 18.2888 52.2869 13.8645 50.3581 10.4967C48.8775 7.91097 46.655 6.008 44.3362 4.20054ZM70.985 6.18731C64.4119 4.78698 53.4559 2.54713 46.8176 3.42875C47.0503 3.56234 47.2794 3.70155 47.5049 3.84637C47.7307 3.99134 47.9527 4.14178 48.1707 4.29768C48.3891 4.45374 48.6035 4.61501 48.8139 4.7815C49.0242 4.948 49.2304 5.11952 49.4324 5.29606C49.6343 5.4726 49.8318 5.65412 50.0248 5.84065C50.2177 6.02717 50.4059 6.21824 50.5893 6.41386C50.773 6.60964 50.9517 6.80977 51.1253 7.01424C51.2991 7.21896 51.4676 7.42771 51.6309 7.6405C51.7944 7.85344 51.9526 8.07032 52.1053 8.29117C52.2582 8.51169 52.4054 8.73595 52.547 8.96398C52.6888 9.19192 52.8248 9.42325 52.955 9.65798C53.0853 9.8927 53.2098 10.1304 53.3284 10.3711C53.4471 10.6118 53.5597 10.8554 53.6662 11.102C53.7728 11.3483 53.8733 11.5971 53.9675 11.8485C54.0619 12.0999 54.15 12.3533 54.2317 12.6088C54.3137 12.8645 54.3892 13.1221 54.4582 13.3815C54.525 13.6209 54.5861 13.8619 54.6413 14.1042C54.6962 14.3465 54.7452 14.5901 54.7881 14.8351C54.8312 15.0798 54.8682 15.3255 54.8991 15.5722C54.9297 15.8188 54.9543 16.066 54.973 16.314C54.9915 16.5617 55.004 16.8098 55.0105 17.0584C55.0169 17.3068 55.0171 17.5552 55.0111 17.8037C55.005 18.052 54.9929 18.3 54.9748 18.5478C54.9564 18.7956 54.932 19.0428 54.9016 19.2894C54.8712 19.5362 54.8348 19.7819 54.7923 20.0265C54.7495 20.2713 54.7008 20.5148 54.6462 20.757C54.5916 20.9995 54.5309 21.2404 54.4644 21.4796C54.3978 21.7188 54.3253 21.9563 54.247 22.1921C54.1688 22.4276 54.0847 22.6611 53.9949 22.8926C53.905 23.1242 53.8094 23.3532 53.708 23.5799C53.6068 23.8068 53.5001 24.0309 53.3879 24.2522C53.2755 24.4735 53.1577 24.692 53.0346 24.9077C52.5638 25.7263 51.9959 26.4831 51.4054 27.218C55.4277 24.4879 59.1108 21.6865 62.3631 18.0273C65.3346 14.589 68.9856 10.2504 70.985 6.18731ZM16.5145 19.6122C16.7559 18.4294 17.1426 16.5338 16.8678 16.4434C16.1514 17.1993 15.4531 17.972 14.7731 18.7614C14.0934 19.5508 13.4327 20.3559 12.7911 21.1767C12.1497 21.9978 11.528 22.8335 10.9261 23.6838C10.3243 24.5345 9.74318 25.399 9.18266 26.2774C8.6218 27.1557 8.08229 28.0469 7.56409 28.9508C7.04575 29.8551 6.54914 30.7711 6.07428 31.6989C5.59951 32.6268 5.14694 33.5655 4.71658 34.5149C4.28654 35.4644 3.87917 36.4237 3.49445 37.3926C6.53966 37.603 9.61696 37.5656 12.6816 37.5284L12.6831 37.5284L12.6844 37.5283C13.6521 37.5166 14.6186 37.5048 15.5824 37.5009C20.0599 37.3189 24.4706 36.8052 28.9089 36.1999C24.5053 35.0468 20.6215 33.1154 18.2328 29.0861C16.7158 26.5271 15.969 23.4305 16.3518 20.4627C16.3701 20.32 16.434 20.0069 16.5139 19.6152L16.5145 19.6122Z" fill="#B83BC8"/>
</g>
</svg>
